G75*
G70*
%OFA0B0*%
%FSLAX24Y24*%
%IPPOS*%
%LPD*%
%AMOC8*
5,1,8,0,0,1.08239X$1,22.5*
%
%ADD10C,0.0158*%
%ADD11C,0.0700*%
%ADD12C,0.1024*%
%ADD13C,0.0634*%
%ADD14R,0.1162X0.1162*%
%ADD15C,0.0260*%
%ADD16C,0.0158*%
%ADD17C,0.0173*%
%ADD18C,0.0100*%
%ADD19C,0.0170*%
%ADD20C,0.0174*%
%ADD21OC8,0.0780*%
%ADD22C,0.0173*%
%ADD23C,0.0167*%
%ADD24C,0.0171*%
%ADD25C,0.0165*%
%ADD26C,0.0165*%
%ADD27C,0.1044*%
%ADD28C,0.0168*%
%ADD29C,0.0421*%
%ADD30C,0.0552*%
%ADD31C,0.0555*%
%ADD32C,0.0116*%
%ADD33C,0.3111*%
D10*
X007349Y032188D03*
X007349Y032385D03*
X007349Y032582D03*
X007349Y032778D03*
X007349Y032975D03*
X007349Y033172D03*
X007349Y033369D03*
X007349Y033566D03*
X007546Y032188D03*
X007743Y032188D03*
X007940Y032188D03*
X008136Y032188D03*
X008333Y032188D03*
X008569Y032188D03*
X008806Y032188D03*
X009003Y032188D03*
X009199Y032188D03*
X009396Y032188D03*
X009593Y032188D03*
X009790Y032188D03*
X009829Y032385D03*
X009829Y032582D03*
X009829Y032778D03*
X009829Y032975D03*
X009829Y033172D03*
X009829Y033369D03*
X009829Y033566D03*
D11*
X009786Y022621D03*
X008786Y022621D03*
X007786Y022621D03*
X006786Y022621D03*
X005786Y022621D03*
X004786Y022621D03*
X003786Y022621D03*
X010786Y022621D03*
X011786Y022621D03*
X012786Y022621D03*
X013786Y022621D03*
X014786Y022621D03*
X015786Y022621D03*
X016786Y022621D03*
X017786Y022621D03*
X018786Y022621D03*
D12*
X031148Y022621D03*
X031148Y010416D03*
X001621Y010416D03*
X001621Y022621D03*
D13*
X008097Y007463D03*
X010066Y007463D03*
X015381Y007463D03*
X017349Y007463D03*
X022664Y007463D03*
X024632Y007463D03*
X024632Y001755D03*
X023648Y001755D03*
X022664Y001755D03*
X017349Y001755D03*
X016365Y001755D03*
X015381Y001755D03*
X010066Y001755D03*
X009081Y001755D03*
X008097Y001755D03*
D14*
X006483Y004708D03*
X011680Y004708D03*
X013766Y004708D03*
X018963Y004708D03*
X021050Y004708D03*
X026247Y004708D03*
D15*
X024870Y013522D02*
X024602Y013790D01*
X024824Y014013D02*
X025092Y013745D01*
X025315Y013967D02*
X025047Y014235D01*
X025270Y014458D02*
X025538Y014190D01*
X025760Y014413D02*
X025492Y014681D01*
X025715Y014903D02*
X025983Y014635D01*
X026206Y014858D02*
X025938Y015126D01*
X026160Y015349D02*
X026428Y015081D01*
X026160Y015912D02*
X026428Y016180D01*
X026206Y016403D02*
X025938Y016135D01*
X025715Y016357D02*
X025983Y016625D01*
X025760Y016848D02*
X025492Y016580D01*
X025270Y016803D02*
X025538Y017071D01*
X025315Y017293D02*
X025047Y017025D01*
X024824Y017248D02*
X025092Y017516D01*
X024870Y017739D02*
X024602Y017471D01*
X024038Y017471D02*
X023770Y017739D01*
X023548Y017516D02*
X023816Y017248D01*
X023593Y017025D02*
X023325Y017293D01*
X023102Y017071D02*
X023370Y016803D01*
X023148Y016580D02*
X022880Y016848D01*
X022657Y016625D02*
X022925Y016357D01*
X022702Y016135D02*
X022434Y016403D01*
X022211Y016180D02*
X022479Y015912D01*
X022479Y015349D02*
X022211Y015081D01*
X022434Y014858D02*
X022702Y015126D01*
X022925Y014903D02*
X022657Y014635D01*
X022880Y014413D02*
X023148Y014681D01*
X023370Y014458D02*
X023102Y014190D01*
X023325Y013967D02*
X023593Y014235D01*
X023816Y014013D02*
X023548Y013745D01*
X023770Y013522D02*
X024038Y013790D01*
D16*
X029918Y016201D02*
X029918Y016693D01*
X030174Y016693D02*
X030174Y016201D01*
X030430Y016201D02*
X030430Y016693D01*
X030686Y016693D02*
X030686Y016201D01*
X030942Y016201D02*
X030942Y016693D01*
X031197Y016693D02*
X031197Y016201D01*
X031453Y016201D02*
X031453Y016693D01*
X031709Y016693D02*
X031709Y016201D01*
X031709Y018416D02*
X031709Y018908D01*
X031453Y018908D02*
X031453Y018416D01*
X031197Y018416D02*
X031197Y018908D01*
X030942Y018908D02*
X030942Y018416D01*
X030686Y018416D02*
X030686Y018908D01*
X030430Y018908D02*
X030430Y018416D01*
X030174Y018416D02*
X030174Y018908D01*
X029918Y018908D02*
X029918Y018416D01*
X038077Y018467D02*
X038077Y018959D01*
X038333Y018959D02*
X038333Y018467D01*
X038589Y018467D02*
X038589Y018959D01*
X038845Y018959D02*
X038845Y018467D01*
X039101Y018467D02*
X039101Y018959D01*
X039357Y018959D02*
X039357Y018467D01*
X039613Y018467D02*
X039613Y018959D01*
X039869Y018959D02*
X039869Y018467D01*
X039869Y016745D02*
X039869Y016253D01*
X039613Y016253D02*
X039613Y016745D01*
X039357Y016745D02*
X039357Y016253D01*
X039101Y016253D02*
X039101Y016745D01*
X038845Y016745D02*
X038845Y016253D01*
X038589Y016253D02*
X038589Y016745D01*
X038333Y016745D02*
X038333Y016253D01*
X038077Y016253D02*
X038077Y016745D01*
X042187Y023243D02*
X042679Y023243D01*
X042679Y023499D02*
X042187Y023499D01*
X042187Y023755D02*
X042679Y023755D01*
X042679Y024011D02*
X042187Y024011D01*
X042187Y024267D02*
X042679Y024267D01*
X042679Y024523D02*
X042187Y024523D01*
X042187Y024779D02*
X042679Y024779D01*
X042679Y025035D02*
X042187Y025035D01*
X044401Y025035D02*
X044893Y025035D01*
X044893Y024779D02*
X044401Y024779D01*
X044401Y024523D02*
X044893Y024523D01*
X044893Y024267D02*
X044401Y024267D01*
X044401Y024011D02*
X044893Y024011D01*
X044893Y023755D02*
X044401Y023755D01*
X044401Y023499D02*
X044893Y023499D01*
X044893Y023243D02*
X044401Y023243D01*
X044473Y010453D02*
X044473Y009961D01*
X044728Y009961D02*
X044728Y010453D01*
X044984Y010453D02*
X044984Y009961D01*
X045240Y009961D02*
X045240Y010453D01*
X044217Y010453D02*
X044217Y009961D01*
X043961Y009961D02*
X043961Y010453D01*
X043705Y010453D02*
X043705Y009961D01*
X043449Y009961D02*
X043449Y010453D01*
X043449Y008239D02*
X043449Y007747D01*
X043705Y007747D02*
X043705Y008239D01*
X043961Y008239D02*
X043961Y007747D01*
X044217Y007747D02*
X044217Y008239D01*
X044473Y008239D02*
X044473Y007747D01*
X044728Y007747D02*
X044728Y008239D01*
X044984Y008239D02*
X044984Y007747D01*
X045240Y007747D02*
X045240Y008239D01*
X028677Y007443D02*
X028185Y007443D01*
X028185Y007188D02*
X028677Y007188D01*
X028677Y006932D02*
X028185Y006932D01*
X028185Y006676D02*
X028677Y006676D01*
X028677Y006420D02*
X028185Y006420D01*
X028185Y006164D02*
X028677Y006164D01*
X028677Y005908D02*
X028185Y005908D01*
X028185Y005652D02*
X028677Y005652D01*
X026462Y005652D02*
X025970Y005652D01*
X025970Y005908D02*
X026462Y005908D01*
X026462Y006164D02*
X025970Y006164D01*
X025970Y006420D02*
X026462Y006420D01*
X026462Y006676D02*
X025970Y006676D01*
X025970Y006932D02*
X026462Y006932D01*
X026462Y007188D02*
X025970Y007188D01*
X025970Y007443D02*
X026462Y007443D01*
X016195Y017919D02*
X016195Y018411D01*
X015939Y018411D02*
X015939Y017919D01*
X015683Y017919D02*
X015683Y018411D01*
X015427Y018411D02*
X015427Y017919D01*
X015171Y017919D02*
X015171Y018411D01*
X014915Y018411D02*
X014915Y017919D01*
X014660Y017919D02*
X014660Y018411D01*
X014404Y018411D02*
X014404Y017919D01*
X014404Y020133D02*
X014404Y020625D01*
X014660Y020625D02*
X014660Y020133D01*
X014915Y020133D02*
X014915Y020625D01*
X015171Y020625D02*
X015171Y020133D01*
X015427Y020133D02*
X015427Y020625D01*
X015683Y020625D02*
X015683Y020133D01*
X015939Y020133D02*
X015939Y020625D01*
X016195Y020625D02*
X016195Y020133D01*
X009190Y006081D02*
X009190Y005589D01*
X008934Y005589D02*
X008934Y006081D01*
X008678Y006081D02*
X008678Y005589D01*
X008422Y005589D02*
X008422Y006081D01*
X008166Y006081D02*
X008166Y005589D01*
X007910Y005589D02*
X007910Y006081D01*
X007654Y006081D02*
X007654Y005589D01*
X007398Y005589D02*
X007398Y006081D01*
X007398Y003866D02*
X007398Y003374D01*
X007654Y003374D02*
X007654Y003866D01*
X007910Y003866D02*
X007910Y003374D01*
X008166Y003374D02*
X008166Y003866D01*
X008422Y003866D02*
X008422Y003374D01*
X008678Y003374D02*
X008678Y003866D01*
X008934Y003866D02*
X008934Y003374D01*
X009190Y003374D02*
X009190Y003866D01*
D17*
X009561Y005030D02*
X009561Y005330D01*
X009823Y005330D01*
X009823Y005030D01*
X009561Y005030D01*
X009561Y005202D02*
X009823Y005202D01*
X009561Y005699D02*
X009561Y005999D01*
X009823Y005999D01*
X009823Y005699D01*
X009561Y005699D01*
X009561Y005871D02*
X009823Y005871D01*
X008257Y008352D02*
X007957Y008352D01*
X008257Y008352D02*
X008257Y008090D01*
X007957Y008090D01*
X007957Y008352D01*
X007957Y008262D02*
X008257Y008262D01*
X007588Y008352D02*
X007288Y008352D01*
X007588Y008352D02*
X007588Y008090D01*
X007288Y008090D01*
X007288Y008352D01*
X007288Y008262D02*
X007588Y008262D01*
X003503Y008736D02*
X003203Y008736D01*
X003503Y008736D02*
X003503Y008474D01*
X003203Y008474D01*
X003203Y008736D01*
X003203Y008646D02*
X003503Y008646D01*
X002834Y008736D02*
X002534Y008736D01*
X002834Y008736D02*
X002834Y008474D01*
X002534Y008474D01*
X002534Y008736D01*
X002534Y008646D02*
X002834Y008646D01*
X002834Y007713D02*
X002534Y007713D01*
X002834Y007713D02*
X002834Y007451D01*
X002534Y007451D01*
X002534Y007713D01*
X002534Y007623D02*
X002834Y007623D01*
X003203Y007713D02*
X003503Y007713D01*
X003503Y007451D01*
X003203Y007451D01*
X003203Y007713D01*
X003203Y007623D02*
X003503Y007623D01*
X003503Y006728D02*
X003203Y006728D01*
X003503Y006728D02*
X003503Y006466D01*
X003203Y006466D01*
X003203Y006728D01*
X003203Y006638D02*
X003503Y006638D01*
X002834Y006728D02*
X002534Y006728D01*
X002834Y006728D02*
X002834Y006466D01*
X002534Y006466D01*
X002534Y006728D01*
X002534Y006638D02*
X002834Y006638D01*
X002834Y005744D02*
X002534Y005744D01*
X002834Y005744D02*
X002834Y005482D01*
X002534Y005482D01*
X002534Y005744D01*
X002534Y005654D02*
X002834Y005654D01*
X003203Y005744D02*
X003503Y005744D01*
X003503Y005482D01*
X003203Y005482D01*
X003203Y005744D01*
X003203Y005654D02*
X003503Y005654D01*
X003503Y004209D02*
X003203Y004209D01*
X003503Y004209D02*
X003503Y003947D01*
X003203Y003947D01*
X003203Y004209D01*
X003203Y004119D02*
X003503Y004119D01*
X002834Y004209D02*
X002534Y004209D01*
X002834Y004209D02*
X002834Y003947D01*
X002534Y003947D01*
X002534Y004209D01*
X002534Y004119D02*
X002834Y004119D01*
X002834Y003185D02*
X002534Y003185D01*
X002834Y003185D02*
X002834Y002923D01*
X002534Y002923D01*
X002534Y003185D01*
X002534Y003095D02*
X002834Y003095D01*
X003203Y003185D02*
X003503Y003185D01*
X003503Y002923D01*
X003203Y002923D01*
X003203Y003185D01*
X003203Y003095D02*
X003503Y003095D01*
X003503Y002201D02*
X003203Y002201D01*
X003503Y002201D02*
X003503Y001939D01*
X003203Y001939D01*
X003203Y002201D01*
X003203Y002111D02*
X003503Y002111D01*
X002834Y002201D02*
X002534Y002201D01*
X002834Y002201D02*
X002834Y001939D01*
X002534Y001939D01*
X002534Y002201D01*
X002534Y002111D02*
X002834Y002111D01*
X002834Y001217D02*
X002534Y001217D01*
X002834Y001217D02*
X002834Y000955D01*
X002534Y000955D01*
X002534Y001217D01*
X002534Y001127D02*
X002834Y001127D01*
X003203Y001217D02*
X003503Y001217D01*
X003503Y000955D01*
X003203Y000955D01*
X003203Y001217D01*
X003203Y001127D02*
X003503Y001127D01*
X014578Y006718D02*
X014878Y006718D01*
X014878Y006456D01*
X014578Y006456D01*
X014578Y006718D01*
X014578Y006628D02*
X014878Y006628D01*
X015248Y006718D02*
X015548Y006718D01*
X015548Y006456D01*
X015248Y006456D01*
X015248Y006718D01*
X015248Y006628D02*
X015548Y006628D01*
X021042Y010631D02*
X021253Y010420D01*
X021068Y010235D01*
X020857Y010446D01*
X021042Y010631D01*
X020896Y010407D02*
X021240Y010407D01*
X021094Y010579D02*
X020990Y010579D01*
X021515Y010157D02*
X021726Y009946D01*
X021541Y009761D01*
X021330Y009972D01*
X021515Y010157D01*
X021369Y009933D02*
X021713Y009933D01*
X021567Y010105D02*
X021463Y010105D01*
X019188Y012204D02*
X018977Y012415D01*
X019162Y012600D01*
X019373Y012389D01*
X019188Y012204D01*
X019360Y012376D02*
X019016Y012376D01*
X019110Y012548D02*
X019214Y012548D01*
X018715Y012678D02*
X018504Y012889D01*
X018689Y013074D01*
X018900Y012863D01*
X018715Y012678D01*
X018887Y012850D02*
X018543Y012850D01*
X018637Y013022D02*
X018741Y013022D01*
X022149Y014266D02*
X022360Y014055D01*
X022175Y013870D01*
X021964Y014081D01*
X022149Y014266D01*
X022003Y014042D02*
X022347Y014042D01*
X022201Y014214D02*
X022097Y014214D01*
X022623Y013792D02*
X022834Y013581D01*
X022649Y013396D01*
X022438Y013607D01*
X022623Y013792D01*
X022477Y013568D02*
X022821Y013568D01*
X022675Y013740D02*
X022571Y013740D01*
X025400Y008281D02*
X025700Y008281D01*
X025700Y008019D01*
X025400Y008019D01*
X025400Y008281D01*
X025400Y008191D02*
X025700Y008191D01*
X026070Y008281D02*
X026370Y008281D01*
X026370Y008019D01*
X026070Y008019D01*
X026070Y008281D01*
X026070Y008191D02*
X026370Y008191D01*
X022814Y006933D02*
X022514Y006933D01*
X022814Y006933D02*
X022814Y006671D01*
X022514Y006671D01*
X022514Y006933D01*
X022514Y006843D02*
X022814Y006843D01*
X022145Y006933D02*
X021845Y006933D01*
X022145Y006933D02*
X022145Y006671D01*
X021845Y006671D01*
X021845Y006933D01*
X021845Y006843D02*
X022145Y006843D01*
X026987Y005018D02*
X026987Y004718D01*
X026987Y005018D02*
X027249Y005018D01*
X027249Y004718D01*
X026987Y004718D01*
X026987Y004890D02*
X027249Y004890D01*
X026987Y004348D02*
X026987Y004048D01*
X026987Y004348D02*
X027249Y004348D01*
X027249Y004048D01*
X026987Y004048D01*
X026987Y004220D02*
X027249Y004220D01*
X028013Y003060D02*
X028313Y003060D01*
X028313Y002798D01*
X028013Y002798D01*
X028013Y003060D01*
X028013Y002970D02*
X028313Y002970D01*
X028683Y003060D02*
X028983Y003060D01*
X028983Y002798D01*
X028683Y002798D01*
X028683Y003060D01*
X028683Y002970D02*
X028983Y002970D01*
X033705Y002870D02*
X033705Y003170D01*
X033705Y002870D02*
X033443Y002870D01*
X033443Y003170D01*
X033705Y003170D01*
X033705Y003042D02*
X033443Y003042D01*
X033705Y002500D02*
X033705Y002200D01*
X033443Y002200D01*
X033443Y002500D01*
X033705Y002500D01*
X033705Y002372D02*
X033443Y002372D01*
X033857Y004959D02*
X033857Y005259D01*
X034119Y005259D01*
X034119Y004959D01*
X033857Y004959D01*
X033857Y005131D02*
X034119Y005131D01*
X033857Y005628D02*
X033857Y005928D01*
X034119Y005928D01*
X034119Y005628D01*
X033857Y005628D01*
X033857Y005800D02*
X034119Y005800D01*
X039027Y006688D02*
X039327Y006688D01*
X039027Y006688D02*
X039027Y006950D01*
X039327Y006950D01*
X039327Y006688D01*
X039327Y006860D02*
X039027Y006860D01*
X039697Y006688D02*
X039997Y006688D01*
X039697Y006688D02*
X039697Y006950D01*
X039997Y006950D01*
X039997Y006688D01*
X039997Y006860D02*
X039697Y006860D01*
X041522Y005546D02*
X041822Y005546D01*
X041522Y005546D02*
X041522Y005808D01*
X041822Y005808D01*
X041822Y005546D01*
X041822Y005718D02*
X041522Y005718D01*
X042192Y005546D02*
X042492Y005546D01*
X042192Y005546D02*
X042192Y005808D01*
X042492Y005808D01*
X042492Y005546D01*
X042492Y005718D02*
X042192Y005718D01*
X042287Y007548D02*
X041987Y007548D01*
X042287Y007548D02*
X042287Y007286D01*
X041987Y007286D01*
X041987Y007548D01*
X041987Y007458D02*
X042287Y007458D01*
X042657Y007548D02*
X042957Y007548D01*
X042957Y007286D01*
X042657Y007286D01*
X042657Y007548D01*
X042657Y007458D02*
X042957Y007458D01*
X042538Y008601D02*
X042238Y008601D01*
X042538Y008601D02*
X042538Y008339D01*
X042238Y008339D01*
X042238Y008601D01*
X042238Y008511D02*
X042538Y008511D01*
X041869Y008601D02*
X041569Y008601D01*
X041869Y008601D02*
X041869Y008339D01*
X041569Y008339D01*
X041569Y008601D01*
X041569Y008511D02*
X041869Y008511D01*
X045570Y006789D02*
X045870Y006789D01*
X045570Y006789D02*
X045570Y007051D01*
X045870Y007051D01*
X045870Y006789D01*
X045870Y006961D02*
X045570Y006961D01*
X046239Y006789D02*
X046539Y006789D01*
X046239Y006789D02*
X046239Y007051D01*
X046539Y007051D01*
X046539Y006789D01*
X046539Y006961D02*
X046239Y006961D01*
X042501Y003060D02*
X042201Y003060D01*
X042501Y003060D02*
X042501Y002798D01*
X042201Y002798D01*
X042201Y003060D01*
X042201Y002970D02*
X042501Y002970D01*
X041832Y003060D02*
X041532Y003060D01*
X041832Y003060D02*
X041832Y002798D01*
X041532Y002798D01*
X041532Y003060D01*
X041532Y002970D02*
X041832Y002970D01*
X042866Y011467D02*
X042866Y011767D01*
X042866Y011467D02*
X042604Y011467D01*
X042604Y011767D01*
X042866Y011767D01*
X042866Y011639D02*
X042604Y011639D01*
X042866Y012136D02*
X042866Y012436D01*
X042866Y012136D02*
X042604Y012136D01*
X042604Y012436D01*
X042866Y012436D01*
X042866Y012308D02*
X042604Y012308D01*
X045162Y012683D02*
X045162Y012983D01*
X045162Y012683D02*
X044900Y012683D01*
X044900Y012983D01*
X045162Y012983D01*
X045162Y012855D02*
X044900Y012855D01*
X045162Y013352D02*
X045162Y013652D01*
X045162Y013352D02*
X044900Y013352D01*
X044900Y013652D01*
X045162Y013652D01*
X045162Y013524D02*
X044900Y013524D01*
X043624Y014799D02*
X043624Y015099D01*
X043624Y014799D02*
X043362Y014799D01*
X043362Y015099D01*
X043624Y015099D01*
X043624Y014971D02*
X043362Y014971D01*
X043624Y015468D02*
X043624Y015768D01*
X043624Y015468D02*
X043362Y015468D01*
X043362Y015768D01*
X043624Y015768D01*
X043624Y015640D02*
X043362Y015640D01*
X041402Y015640D02*
X041402Y015340D01*
X041140Y015340D01*
X041140Y015640D01*
X041402Y015640D01*
X041402Y015512D02*
X041140Y015512D01*
X041402Y016009D02*
X041402Y016309D01*
X041402Y016009D02*
X041140Y016009D01*
X041140Y016309D01*
X041402Y016309D01*
X041402Y016181D02*
X041140Y016181D01*
X041082Y017058D02*
X041082Y017358D01*
X041082Y017058D02*
X040820Y017058D01*
X040820Y017358D01*
X041082Y017358D01*
X041082Y017230D02*
X040820Y017230D01*
X041082Y017727D02*
X041082Y018027D01*
X041082Y017727D02*
X040820Y017727D01*
X040820Y018027D01*
X041082Y018027D01*
X041082Y017899D02*
X040820Y017899D01*
X041232Y018574D02*
X041532Y018574D01*
X041532Y018312D01*
X041232Y018312D01*
X041232Y018574D01*
X041232Y018484D02*
X041532Y018484D01*
X041901Y018574D02*
X042201Y018574D01*
X042201Y018312D01*
X041901Y018312D01*
X041901Y018574D01*
X041901Y018484D02*
X042201Y018484D01*
X045191Y021169D02*
X045491Y021169D01*
X045191Y021169D02*
X045191Y021431D01*
X045491Y021431D01*
X045491Y021169D01*
X045491Y021341D02*
X045191Y021341D01*
X045860Y021169D02*
X046160Y021169D01*
X045860Y021169D02*
X045860Y021431D01*
X046160Y021431D01*
X046160Y021169D01*
X046160Y021341D02*
X045860Y021341D01*
X049565Y023684D02*
X049565Y023984D01*
X049565Y023684D02*
X049303Y023684D01*
X049303Y023984D01*
X049565Y023984D01*
X049565Y023856D02*
X049303Y023856D01*
X049565Y024353D02*
X049565Y024653D01*
X049565Y024353D02*
X049303Y024353D01*
X049303Y024653D01*
X049565Y024653D01*
X049565Y024525D02*
X049303Y024525D01*
X043235Y025384D02*
X042935Y025384D01*
X042935Y025646D01*
X043235Y025646D01*
X043235Y025384D01*
X043235Y025556D02*
X042935Y025556D01*
X042565Y025384D02*
X042265Y025384D01*
X042265Y025646D01*
X042565Y025646D01*
X042565Y025384D01*
X042565Y025556D02*
X042265Y025556D01*
X039573Y022554D02*
X039573Y022254D01*
X039573Y022554D02*
X039835Y022554D01*
X039835Y022254D01*
X039573Y022254D01*
X039573Y022426D02*
X039835Y022426D01*
X039573Y021885D02*
X039573Y021585D01*
X039573Y021885D02*
X039835Y021885D01*
X039835Y021585D01*
X039573Y021585D01*
X039573Y021757D02*
X039835Y021757D01*
X038906Y021567D02*
X038606Y021567D01*
X038606Y021829D01*
X038906Y021829D01*
X038906Y021567D01*
X038906Y021739D02*
X038606Y021739D01*
X038237Y021567D02*
X037937Y021567D01*
X037937Y021829D01*
X038237Y021829D01*
X038237Y021567D01*
X038237Y021739D02*
X037937Y021739D01*
X037000Y018475D02*
X037000Y018175D01*
X036738Y018175D01*
X036738Y018475D01*
X037000Y018475D01*
X037000Y018347D02*
X036738Y018347D01*
X037000Y017805D02*
X037000Y017505D01*
X036738Y017505D01*
X036738Y017805D01*
X037000Y017805D01*
X037000Y017677D02*
X036738Y017677D01*
X036776Y016490D02*
X037076Y016490D01*
X037076Y016228D01*
X036776Y016228D01*
X036776Y016490D01*
X036776Y016400D02*
X037076Y016400D01*
X037445Y016490D02*
X037745Y016490D01*
X037745Y016228D01*
X037445Y016228D01*
X037445Y016490D01*
X037445Y016400D02*
X037745Y016400D01*
X037745Y015899D02*
X037445Y015899D01*
X037745Y015899D02*
X037745Y015637D01*
X037445Y015637D01*
X037445Y015899D01*
X037445Y015809D02*
X037745Y015809D01*
X037076Y015899D02*
X036776Y015899D01*
X037076Y015899D02*
X037076Y015637D01*
X036776Y015637D01*
X036776Y015899D01*
X036776Y015809D02*
X037076Y015809D01*
X037076Y015309D02*
X036776Y015309D01*
X037076Y015309D02*
X037076Y015047D01*
X036776Y015047D01*
X036776Y015309D01*
X036776Y015219D02*
X037076Y015219D01*
X037445Y015309D02*
X037745Y015309D01*
X037745Y015047D01*
X037445Y015047D01*
X037445Y015309D01*
X037445Y015219D02*
X037745Y015219D01*
X037745Y014718D02*
X037445Y014718D01*
X037745Y014718D02*
X037745Y014456D01*
X037445Y014456D01*
X037445Y014718D01*
X037445Y014628D02*
X037745Y014628D01*
X037745Y014127D02*
X037445Y014127D01*
X037745Y014127D02*
X037745Y013865D01*
X037445Y013865D01*
X037445Y014127D01*
X037445Y014037D02*
X037745Y014037D01*
X037076Y014127D02*
X036776Y014127D01*
X037076Y014127D02*
X037076Y013865D01*
X036776Y013865D01*
X036776Y014127D01*
X036776Y014037D02*
X037076Y014037D01*
X037076Y014718D02*
X036776Y014718D01*
X037076Y014718D02*
X037076Y014456D01*
X036776Y014456D01*
X036776Y014718D01*
X036776Y014628D02*
X037076Y014628D01*
X037076Y013537D02*
X036776Y013537D01*
X037076Y013537D02*
X037076Y013275D01*
X036776Y013275D01*
X036776Y013537D01*
X036776Y013447D02*
X037076Y013447D01*
X037445Y013537D02*
X037745Y013537D01*
X037745Y013275D01*
X037445Y013275D01*
X037445Y013537D01*
X037445Y013447D02*
X037745Y013447D01*
X037745Y012946D02*
X037445Y012946D01*
X037745Y012946D02*
X037745Y012684D01*
X037445Y012684D01*
X037445Y012946D01*
X037445Y012856D02*
X037745Y012856D01*
X037076Y012946D02*
X036776Y012946D01*
X037076Y012946D02*
X037076Y012684D01*
X036776Y012684D01*
X036776Y012946D01*
X036776Y012856D02*
X037076Y012856D01*
X037076Y012356D02*
X036776Y012356D01*
X037076Y012356D02*
X037076Y012094D01*
X036776Y012094D01*
X036776Y012356D01*
X036776Y012266D02*
X037076Y012266D01*
X037445Y012356D02*
X037745Y012356D01*
X037745Y012094D01*
X037445Y012094D01*
X037445Y012356D01*
X037445Y012266D02*
X037745Y012266D01*
X039825Y012306D02*
X039825Y012006D01*
X039563Y012006D01*
X039563Y012306D01*
X039825Y012306D01*
X039825Y012178D02*
X039563Y012178D01*
X039825Y012675D02*
X039825Y012975D01*
X039825Y012675D02*
X039563Y012675D01*
X039563Y012975D01*
X039825Y012975D01*
X039825Y012847D02*
X039563Y012847D01*
X033021Y012684D02*
X032721Y012684D01*
X032721Y012946D01*
X033021Y012946D01*
X033021Y012684D01*
X033021Y012856D02*
X032721Y012856D01*
X032351Y012684D02*
X032051Y012684D01*
X032051Y012946D01*
X032351Y012946D01*
X032351Y012684D01*
X032351Y012856D02*
X032051Y012856D01*
X032051Y013275D02*
X032351Y013275D01*
X032051Y013275D02*
X032051Y013537D01*
X032351Y013537D01*
X032351Y013275D01*
X032351Y013447D02*
X032051Y013447D01*
X032051Y013865D02*
X032351Y013865D01*
X032051Y013865D02*
X032051Y014127D01*
X032351Y014127D01*
X032351Y013865D01*
X032351Y014037D02*
X032051Y014037D01*
X032051Y014456D02*
X032351Y014456D01*
X032051Y014456D02*
X032051Y014718D01*
X032351Y014718D01*
X032351Y014456D01*
X032351Y014628D02*
X032051Y014628D01*
X032051Y015047D02*
X032351Y015047D01*
X032051Y015047D02*
X032051Y015309D01*
X032351Y015309D01*
X032351Y015047D01*
X032351Y015219D02*
X032051Y015219D01*
X032051Y015637D02*
X032351Y015637D01*
X032051Y015637D02*
X032051Y015899D01*
X032351Y015899D01*
X032351Y015637D01*
X032351Y015809D02*
X032051Y015809D01*
X032051Y016228D02*
X032351Y016228D01*
X032051Y016228D02*
X032051Y016490D01*
X032351Y016490D01*
X032351Y016228D01*
X032351Y016400D02*
X032051Y016400D01*
X032721Y016228D02*
X033021Y016228D01*
X032721Y016228D02*
X032721Y016490D01*
X033021Y016490D01*
X033021Y016228D01*
X033021Y016400D02*
X032721Y016400D01*
X032721Y015637D02*
X033021Y015637D01*
X032721Y015637D02*
X032721Y015899D01*
X033021Y015899D01*
X033021Y015637D01*
X033021Y015809D02*
X032721Y015809D01*
X032721Y015047D02*
X033021Y015047D01*
X032721Y015047D02*
X032721Y015309D01*
X033021Y015309D01*
X033021Y015047D01*
X033021Y015219D02*
X032721Y015219D01*
X032721Y014456D02*
X033021Y014456D01*
X032721Y014456D02*
X032721Y014718D01*
X033021Y014718D01*
X033021Y014456D01*
X033021Y014628D02*
X032721Y014628D01*
X032721Y013865D02*
X033021Y013865D01*
X032721Y013865D02*
X032721Y014127D01*
X033021Y014127D01*
X033021Y013865D01*
X033021Y014037D02*
X032721Y014037D01*
X032721Y013275D02*
X033021Y013275D01*
X032721Y013275D02*
X032721Y013537D01*
X033021Y013537D01*
X033021Y013275D01*
X033021Y013447D02*
X032721Y013447D01*
X032721Y012094D02*
X033021Y012094D01*
X032721Y012094D02*
X032721Y012356D01*
X033021Y012356D01*
X033021Y012094D01*
X033021Y012266D02*
X032721Y012266D01*
X032351Y012094D02*
X032051Y012094D01*
X032051Y012356D01*
X032351Y012356D01*
X032351Y012094D01*
X032351Y012266D02*
X032051Y012266D01*
X032460Y018416D02*
X032460Y018716D01*
X032460Y018416D02*
X032198Y018416D01*
X032198Y018716D01*
X032460Y018716D01*
X032460Y018588D02*
X032198Y018588D01*
X032460Y019085D02*
X032460Y019385D01*
X032460Y019085D02*
X032198Y019085D01*
X032198Y019385D01*
X032460Y019385D01*
X032460Y019257D02*
X032198Y019257D01*
X018769Y021824D02*
X018469Y021824D01*
X018769Y021824D02*
X018769Y021562D01*
X018469Y021562D01*
X018469Y021824D01*
X018469Y021734D02*
X018769Y021734D01*
X018099Y021824D02*
X017799Y021824D01*
X018099Y021824D02*
X018099Y021562D01*
X017799Y021562D01*
X017799Y021824D01*
X017799Y021734D02*
X018099Y021734D01*
X018195Y020490D02*
X018457Y020490D01*
X018195Y020490D02*
X018195Y020908D01*
X018457Y020908D01*
X018457Y020490D01*
X018457Y020662D02*
X018195Y020662D01*
X018195Y020834D02*
X018457Y020834D01*
X017709Y020490D02*
X017447Y020490D01*
X017447Y020908D01*
X017709Y020908D01*
X017709Y020490D01*
X017709Y020662D02*
X017447Y020662D01*
X017447Y020834D02*
X017709Y020834D01*
X016946Y020839D02*
X016946Y020539D01*
X016684Y020539D01*
X016684Y020839D01*
X016946Y020839D01*
X016946Y020711D02*
X016684Y020711D01*
X016946Y020170D02*
X016946Y019870D01*
X016684Y019870D01*
X016684Y020170D01*
X016946Y020170D01*
X016946Y020042D02*
X016684Y020042D01*
X017821Y019624D02*
X018083Y019624D01*
X017821Y019624D02*
X017821Y020042D01*
X018083Y020042D01*
X018083Y019624D01*
X018083Y019796D02*
X017821Y019796D01*
X017821Y019968D02*
X018083Y019968D01*
X013937Y019011D02*
X013937Y018711D01*
X013675Y018711D01*
X013675Y019011D01*
X013937Y019011D01*
X013937Y018883D02*
X013675Y018883D01*
X013937Y018342D02*
X013937Y018042D01*
X013675Y018042D01*
X013675Y018342D01*
X013937Y018342D01*
X013937Y018214D02*
X013675Y018214D01*
X005629Y028067D02*
X005329Y028067D01*
X005629Y028067D02*
X005629Y027805D01*
X005329Y027805D01*
X005329Y028067D01*
X005329Y027977D02*
X005629Y027977D01*
X004960Y028067D02*
X004660Y028067D01*
X004960Y028067D02*
X004960Y027805D01*
X004660Y027805D01*
X004660Y028067D01*
X004660Y027977D02*
X004960Y027977D01*
X044778Y029639D02*
X045040Y029639D01*
X045040Y029141D01*
X044778Y029141D01*
X044778Y029639D01*
X044778Y029313D02*
X045040Y029313D01*
X045040Y029485D02*
X044778Y029485D01*
X046573Y029639D02*
X046835Y029639D01*
X046835Y029141D01*
X046573Y029141D01*
X046573Y029639D01*
X046573Y029313D02*
X046835Y029313D01*
X046835Y029485D02*
X046573Y029485D01*
X047241Y017598D02*
X047541Y017598D01*
X047241Y017598D02*
X047241Y017860D01*
X047541Y017860D01*
X047541Y017598D01*
X047541Y017770D02*
X047241Y017770D01*
X047910Y017598D02*
X048210Y017598D01*
X047910Y017598D02*
X047910Y017860D01*
X048210Y017860D01*
X048210Y017598D01*
X048210Y017770D02*
X047910Y017770D01*
X047389Y015719D02*
X047389Y015419D01*
X047127Y015419D01*
X047127Y015719D01*
X047389Y015719D01*
X047389Y015591D02*
X047127Y015591D01*
X047389Y015049D02*
X047389Y014749D01*
X047127Y014749D01*
X047127Y015049D01*
X047389Y015049D01*
X047389Y014921D02*
X047127Y014921D01*
D18*
X027265Y023332D02*
X027265Y024052D01*
X027415Y024052D01*
X027415Y023332D01*
X027265Y023332D01*
X027265Y023431D02*
X027415Y023431D01*
X027415Y023530D02*
X027265Y023530D01*
X027265Y023629D02*
X027415Y023629D01*
X027415Y023728D02*
X027265Y023728D01*
X027265Y023827D02*
X027415Y023827D01*
X027415Y023926D02*
X027265Y023926D01*
X027265Y024025D02*
X027415Y024025D01*
X026765Y024052D02*
X026765Y023332D01*
X026765Y024052D02*
X026915Y024052D01*
X026915Y023332D01*
X026765Y023332D01*
X026765Y023431D02*
X026915Y023431D01*
X026915Y023530D02*
X026765Y023530D01*
X026765Y023629D02*
X026915Y023629D01*
X026915Y023728D02*
X026765Y023728D01*
X026765Y023827D02*
X026915Y023827D01*
X026915Y023926D02*
X026765Y023926D01*
X026765Y024025D02*
X026915Y024025D01*
X026265Y024052D02*
X026265Y023332D01*
X026265Y024052D02*
X026415Y024052D01*
X026415Y023332D01*
X026265Y023332D01*
X026265Y023431D02*
X026415Y023431D01*
X026415Y023530D02*
X026265Y023530D01*
X026265Y023629D02*
X026415Y023629D01*
X026415Y023728D02*
X026265Y023728D01*
X026265Y023827D02*
X026415Y023827D01*
X026415Y023926D02*
X026265Y023926D01*
X026265Y024025D02*
X026415Y024025D01*
X025765Y024052D02*
X025765Y023332D01*
X025765Y024052D02*
X025915Y024052D01*
X025915Y023332D01*
X025765Y023332D01*
X025765Y023431D02*
X025915Y023431D01*
X025915Y023530D02*
X025765Y023530D01*
X025765Y023629D02*
X025915Y023629D01*
X025915Y023728D02*
X025765Y023728D01*
X025765Y023827D02*
X025915Y023827D01*
X025915Y023926D02*
X025765Y023926D01*
X025765Y024025D02*
X025915Y024025D01*
X025265Y024052D02*
X025265Y023332D01*
X025265Y024052D02*
X025415Y024052D01*
X025415Y023332D01*
X025265Y023332D01*
X025265Y023431D02*
X025415Y023431D01*
X025415Y023530D02*
X025265Y023530D01*
X025265Y023629D02*
X025415Y023629D01*
X025415Y023728D02*
X025265Y023728D01*
X025265Y023827D02*
X025415Y023827D01*
X025415Y023926D02*
X025265Y023926D01*
X025265Y024025D02*
X025415Y024025D01*
X024765Y024052D02*
X024765Y023332D01*
X024765Y024052D02*
X024915Y024052D01*
X024915Y023332D01*
X024765Y023332D01*
X024765Y023431D02*
X024915Y023431D01*
X024915Y023530D02*
X024765Y023530D01*
X024765Y023629D02*
X024915Y023629D01*
X024915Y023728D02*
X024765Y023728D01*
X024765Y023827D02*
X024915Y023827D01*
X024915Y023926D02*
X024765Y023926D01*
X024765Y024025D02*
X024915Y024025D01*
X024265Y024052D02*
X024265Y023332D01*
X024265Y024052D02*
X024415Y024052D01*
X024415Y023332D01*
X024265Y023332D01*
X024265Y023431D02*
X024415Y023431D01*
X024415Y023530D02*
X024265Y023530D01*
X024265Y023629D02*
X024415Y023629D01*
X024415Y023728D02*
X024265Y023728D01*
X024265Y023827D02*
X024415Y023827D01*
X024415Y023926D02*
X024265Y023926D01*
X024265Y024025D02*
X024415Y024025D01*
X023765Y024052D02*
X023765Y023332D01*
X023765Y024052D02*
X023915Y024052D01*
X023915Y023332D01*
X023765Y023332D01*
X023765Y023431D02*
X023915Y023431D01*
X023915Y023530D02*
X023765Y023530D01*
X023765Y023629D02*
X023915Y023629D01*
X023915Y023728D02*
X023765Y023728D01*
X023765Y023827D02*
X023915Y023827D01*
X023915Y023926D02*
X023765Y023926D01*
X023765Y024025D02*
X023915Y024025D01*
X023765Y027032D02*
X023765Y027752D01*
X023915Y027752D01*
X023915Y027032D01*
X023765Y027032D01*
X023765Y027131D02*
X023915Y027131D01*
X023915Y027230D02*
X023765Y027230D01*
X023765Y027329D02*
X023915Y027329D01*
X023915Y027428D02*
X023765Y027428D01*
X023765Y027527D02*
X023915Y027527D01*
X023915Y027626D02*
X023765Y027626D01*
X023765Y027725D02*
X023915Y027725D01*
X024265Y027752D02*
X024265Y027032D01*
X024265Y027752D02*
X024415Y027752D01*
X024415Y027032D01*
X024265Y027032D01*
X024265Y027131D02*
X024415Y027131D01*
X024415Y027230D02*
X024265Y027230D01*
X024265Y027329D02*
X024415Y027329D01*
X024415Y027428D02*
X024265Y027428D01*
X024265Y027527D02*
X024415Y027527D01*
X024415Y027626D02*
X024265Y027626D01*
X024265Y027725D02*
X024415Y027725D01*
X024765Y027752D02*
X024765Y027032D01*
X024765Y027752D02*
X024915Y027752D01*
X024915Y027032D01*
X024765Y027032D01*
X024765Y027131D02*
X024915Y027131D01*
X024915Y027230D02*
X024765Y027230D01*
X024765Y027329D02*
X024915Y027329D01*
X024915Y027428D02*
X024765Y027428D01*
X024765Y027527D02*
X024915Y027527D01*
X024915Y027626D02*
X024765Y027626D01*
X024765Y027725D02*
X024915Y027725D01*
X025265Y027752D02*
X025265Y027032D01*
X025265Y027752D02*
X025415Y027752D01*
X025415Y027032D01*
X025265Y027032D01*
X025265Y027131D02*
X025415Y027131D01*
X025415Y027230D02*
X025265Y027230D01*
X025265Y027329D02*
X025415Y027329D01*
X025415Y027428D02*
X025265Y027428D01*
X025265Y027527D02*
X025415Y027527D01*
X025415Y027626D02*
X025265Y027626D01*
X025265Y027725D02*
X025415Y027725D01*
X025765Y027752D02*
X025765Y027032D01*
X025765Y027752D02*
X025915Y027752D01*
X025915Y027032D01*
X025765Y027032D01*
X025765Y027131D02*
X025915Y027131D01*
X025915Y027230D02*
X025765Y027230D01*
X025765Y027329D02*
X025915Y027329D01*
X025915Y027428D02*
X025765Y027428D01*
X025765Y027527D02*
X025915Y027527D01*
X025915Y027626D02*
X025765Y027626D01*
X025765Y027725D02*
X025915Y027725D01*
X026265Y027752D02*
X026265Y027032D01*
X026265Y027752D02*
X026415Y027752D01*
X026415Y027032D01*
X026265Y027032D01*
X026265Y027131D02*
X026415Y027131D01*
X026415Y027230D02*
X026265Y027230D01*
X026265Y027329D02*
X026415Y027329D01*
X026415Y027428D02*
X026265Y027428D01*
X026265Y027527D02*
X026415Y027527D01*
X026415Y027626D02*
X026265Y027626D01*
X026265Y027725D02*
X026415Y027725D01*
X026765Y027752D02*
X026765Y027032D01*
X026765Y027752D02*
X026915Y027752D01*
X026915Y027032D01*
X026765Y027032D01*
X026765Y027131D02*
X026915Y027131D01*
X026915Y027230D02*
X026765Y027230D01*
X026765Y027329D02*
X026915Y027329D01*
X026915Y027428D02*
X026765Y027428D01*
X026765Y027527D02*
X026915Y027527D01*
X026915Y027626D02*
X026765Y027626D01*
X026765Y027725D02*
X026915Y027725D01*
X027265Y027752D02*
X027265Y027032D01*
X027265Y027752D02*
X027415Y027752D01*
X027415Y027032D01*
X027265Y027032D01*
X027265Y027131D02*
X027415Y027131D01*
X027415Y027230D02*
X027265Y027230D01*
X027265Y027329D02*
X027415Y027329D01*
X027415Y027428D02*
X027265Y027428D01*
X027265Y027527D02*
X027415Y027527D01*
X027415Y027626D02*
X027265Y027626D01*
X027265Y027725D02*
X027415Y027725D01*
D19*
X006300Y021394D02*
X006300Y020934D01*
X005800Y020934D01*
X005800Y021394D01*
X006300Y021394D01*
X006300Y021103D02*
X005800Y021103D01*
X005800Y021272D02*
X006300Y021272D01*
D20*
X004910Y021389D02*
X004910Y021727D01*
X004910Y021389D02*
X004572Y021389D01*
X004572Y021727D01*
X004910Y021727D01*
X004910Y021562D02*
X004572Y021562D01*
X004910Y020940D02*
X004910Y020602D01*
X004572Y020602D01*
X004572Y020940D01*
X004910Y020940D01*
X004910Y020775D02*
X004572Y020775D01*
D21*
X004755Y028921D03*
X005755Y028921D03*
X005755Y029921D03*
X004755Y029921D03*
X004755Y030921D03*
X005755Y030921D03*
X005755Y031921D03*
X004755Y031921D03*
X004755Y032921D03*
X005755Y032921D03*
D22*
X044809Y033418D02*
X046803Y033418D01*
X046803Y031110D01*
X044809Y031110D01*
X044809Y033418D01*
X044809Y031282D02*
X046803Y031282D01*
X046803Y031454D02*
X044809Y031454D01*
X044809Y031626D02*
X046803Y031626D01*
X046803Y031798D02*
X044809Y031798D01*
X044809Y031970D02*
X046803Y031970D01*
X046803Y032142D02*
X044809Y032142D01*
X044809Y032314D02*
X046803Y032314D01*
X046803Y032486D02*
X044809Y032486D01*
X044809Y032658D02*
X046803Y032658D01*
X046803Y032830D02*
X044809Y032830D01*
X044809Y033002D02*
X046803Y033002D01*
X046803Y033174D02*
X044809Y033174D01*
X044809Y033346D02*
X046803Y033346D01*
D23*
X044203Y032326D02*
X043699Y032326D01*
X044203Y032326D02*
X044203Y031508D01*
X043699Y031508D01*
X043699Y032326D01*
X043699Y031674D02*
X044203Y031674D01*
X044203Y031840D02*
X043699Y031840D01*
X043699Y032006D02*
X044203Y032006D01*
X044203Y032172D02*
X043699Y032172D01*
X043022Y031508D02*
X042518Y031508D01*
X042518Y032326D01*
X043022Y032326D01*
X043022Y031508D01*
X043022Y031674D02*
X042518Y031674D01*
X042518Y031840D02*
X043022Y031840D01*
X043022Y032006D02*
X042518Y032006D01*
X042518Y032172D02*
X043022Y032172D01*
D24*
X045564Y026643D02*
X045564Y026261D01*
X045564Y026643D02*
X046064Y026643D01*
X046064Y026261D01*
X045564Y026261D01*
X045564Y026431D02*
X046064Y026431D01*
X046064Y026601D02*
X045564Y026601D01*
X045564Y025856D02*
X045564Y025474D01*
X045564Y025856D02*
X046064Y025856D01*
X046064Y025474D01*
X045564Y025474D01*
X045564Y025644D02*
X046064Y025644D01*
X046064Y025814D02*
X045564Y025814D01*
D25*
X044589Y026544D02*
X044589Y027206D01*
X045251Y027206D01*
X045251Y026544D01*
X044589Y026544D01*
X044589Y026708D02*
X045251Y026708D01*
X045251Y026872D02*
X044589Y026872D01*
X044589Y027036D02*
X045251Y027036D01*
X045251Y027200D02*
X044589Y027200D01*
X045251Y028119D02*
X045251Y028781D01*
X045251Y028119D02*
X044589Y028119D01*
X044589Y028781D01*
X045251Y028781D01*
X045251Y028283D02*
X044589Y028283D01*
X044589Y028447D02*
X045251Y028447D01*
X045251Y028611D02*
X044589Y028611D01*
X044589Y028775D02*
X045251Y028775D01*
X047030Y028784D02*
X047030Y028122D01*
X046368Y028122D01*
X046368Y028784D01*
X047030Y028784D01*
X047030Y028286D02*
X046368Y028286D01*
X046368Y028450D02*
X047030Y028450D01*
X047030Y028614D02*
X046368Y028614D01*
X046368Y028778D02*
X047030Y028778D01*
X046368Y027209D02*
X046368Y026547D01*
X046368Y027209D02*
X047030Y027209D01*
X047030Y026547D01*
X046368Y026547D01*
X046368Y026711D02*
X047030Y026711D01*
X047030Y026875D02*
X046368Y026875D01*
X046368Y027039D02*
X047030Y027039D01*
X047030Y027203D02*
X046368Y027203D01*
X007837Y027283D02*
X007837Y026621D01*
X007175Y026621D01*
X007175Y027283D01*
X007837Y027283D01*
X007837Y026785D02*
X007175Y026785D01*
X007175Y026949D02*
X007837Y026949D01*
X007837Y027113D02*
X007175Y027113D01*
X007175Y027277D02*
X007837Y027277D01*
X006460Y027283D02*
X006460Y026621D01*
X005798Y026621D01*
X005798Y027283D01*
X006460Y027283D01*
X006460Y026785D02*
X005798Y026785D01*
X005798Y026949D02*
X006460Y026949D01*
X006460Y027113D02*
X005798Y027113D01*
X005798Y027277D02*
X006460Y027277D01*
X005798Y025708D02*
X005798Y025046D01*
X005798Y025708D02*
X006460Y025708D01*
X006460Y025046D01*
X005798Y025046D01*
X005798Y025210D02*
X006460Y025210D01*
X006460Y025374D02*
X005798Y025374D01*
X005798Y025538D02*
X006460Y025538D01*
X006460Y025702D02*
X005798Y025702D01*
X007175Y025708D02*
X007175Y025046D01*
X007175Y025708D02*
X007837Y025708D01*
X007837Y025046D01*
X007175Y025046D01*
X007175Y025210D02*
X007837Y025210D01*
X007837Y025374D02*
X007175Y025374D01*
X007175Y025538D02*
X007837Y025538D01*
X007837Y025702D02*
X007175Y025702D01*
D26*
X042859Y027145D02*
X042859Y028181D01*
X043797Y028181D01*
X043797Y027145D01*
X042859Y027145D01*
X042859Y027309D02*
X043797Y027309D01*
X043797Y027473D02*
X042859Y027473D01*
X042859Y027637D02*
X043797Y027637D01*
X043797Y027801D02*
X042859Y027801D01*
X042859Y027965D02*
X043797Y027965D01*
X043797Y028129D02*
X042859Y028129D01*
X042859Y029802D02*
X042859Y030838D01*
X043797Y030838D01*
X043797Y029802D01*
X042859Y029802D01*
X042859Y029966D02*
X043797Y029966D01*
X043797Y030130D02*
X042859Y030130D01*
X042859Y030294D02*
X043797Y030294D01*
X043797Y030458D02*
X042859Y030458D01*
X042859Y030622D02*
X043797Y030622D01*
X043797Y030786D02*
X042859Y030786D01*
D27*
X048181Y026772D02*
X048181Y025768D01*
X049740Y025768D02*
X049740Y026772D01*
D28*
X022859Y010127D02*
X021466Y011520D01*
X021913Y011967D01*
X023306Y010574D01*
X022859Y010127D01*
X023026Y010294D02*
X022692Y010294D01*
X022525Y010461D02*
X023193Y010461D01*
X023252Y010628D02*
X022358Y010628D01*
X022191Y010795D02*
X023085Y010795D01*
X022918Y010962D02*
X022024Y010962D01*
X021857Y011129D02*
X022751Y011129D01*
X022584Y011296D02*
X021690Y011296D01*
X021523Y011463D02*
X022417Y011463D01*
X022250Y011630D02*
X021576Y011630D01*
X021743Y011797D02*
X022083Y011797D01*
X021916Y011964D02*
X021910Y011964D01*
X020172Y012814D02*
X018779Y014207D01*
X019226Y014654D01*
X020619Y013261D01*
X020172Y012814D01*
X020339Y012981D02*
X020005Y012981D01*
X019838Y013148D02*
X020506Y013148D01*
X020565Y013315D02*
X019671Y013315D01*
X019504Y013482D02*
X020398Y013482D01*
X020231Y013649D02*
X019337Y013649D01*
X019170Y013816D02*
X020064Y013816D01*
X019897Y013983D02*
X019003Y013983D01*
X018836Y014150D02*
X019730Y014150D01*
X019563Y014317D02*
X018889Y014317D01*
X019056Y014484D02*
X019396Y014484D01*
X019229Y014651D02*
X019223Y014651D01*
D29*
X019117Y030819D03*
X019617Y030819D03*
X020117Y030819D03*
X020617Y030819D03*
X021117Y030819D03*
X021617Y030819D03*
X022117Y030819D03*
X022617Y030819D03*
X023117Y030819D03*
X023617Y030819D03*
X024117Y030819D03*
X024617Y030819D03*
X025117Y030819D03*
X025617Y030819D03*
X026117Y030819D03*
X026617Y030819D03*
X027117Y030819D03*
X027617Y030819D03*
X028117Y030819D03*
X028617Y030819D03*
X029117Y030819D03*
X029617Y030819D03*
X030117Y030819D03*
X030617Y030819D03*
X031117Y030819D03*
X031617Y030819D03*
X032117Y030819D03*
X032617Y030819D03*
X033117Y030819D03*
X033617Y030819D03*
X034117Y030819D03*
X034617Y030819D03*
X035117Y030819D03*
X035617Y030819D03*
X036117Y030819D03*
X036617Y030819D03*
X036617Y031319D03*
X036117Y031319D03*
X035617Y031319D03*
X035117Y031319D03*
X034617Y031319D03*
X034117Y031319D03*
X033617Y031319D03*
X033117Y031319D03*
X032617Y031319D03*
X032117Y031319D03*
X031617Y031319D03*
X031117Y031319D03*
X030617Y031319D03*
X030117Y031319D03*
X029617Y031319D03*
X029117Y031319D03*
X028617Y031319D03*
X028117Y031319D03*
X027617Y031319D03*
X027117Y031319D03*
X026617Y031319D03*
X026117Y031319D03*
X025617Y031319D03*
X025117Y031319D03*
X024617Y031319D03*
X024117Y031319D03*
X023617Y031319D03*
X023117Y031319D03*
X022617Y031319D03*
X022117Y031319D03*
X021617Y031319D03*
X021117Y031319D03*
X020617Y031319D03*
X020117Y031319D03*
X019617Y031319D03*
X019117Y031319D03*
X018617Y031319D03*
X018617Y030819D03*
X018117Y030819D03*
X017617Y030819D03*
X017117Y030819D03*
X016617Y030819D03*
X016117Y030819D03*
X015617Y030819D03*
X015117Y030819D03*
X014617Y030819D03*
X014617Y031319D03*
X015117Y031319D03*
X015617Y031319D03*
X016117Y031319D03*
X016617Y031319D03*
X017117Y031319D03*
X017617Y031319D03*
X018117Y031319D03*
D30*
X013968Y031069D03*
X037270Y031069D03*
D31*
X001543Y001079D02*
X001028Y001079D01*
X001028Y002079D02*
X001543Y002079D01*
X001543Y003079D02*
X001028Y003079D01*
X001028Y004079D02*
X001543Y004079D01*
X004028Y004079D02*
X004543Y004079D01*
X004543Y003079D02*
X004028Y003079D01*
X004028Y002079D02*
X004543Y002079D01*
X004543Y001079D02*
X004028Y001079D01*
X004028Y005589D02*
X004543Y005589D01*
X004543Y006589D02*
X004028Y006589D01*
X004028Y007589D02*
X004543Y007589D01*
X004543Y008589D02*
X004028Y008589D01*
X001543Y008589D02*
X001028Y008589D01*
X001028Y007589D02*
X001543Y007589D01*
X001543Y006589D02*
X001028Y006589D01*
X001028Y005589D02*
X001543Y005589D01*
D32*
X029604Y028346D02*
X029778Y028346D01*
X029778Y027922D01*
X029604Y027922D01*
X029604Y028346D01*
X029604Y028037D02*
X029778Y028037D01*
X029778Y028152D02*
X029604Y028152D01*
X029604Y028267D02*
X029778Y028267D01*
X029925Y027922D02*
X030099Y027922D01*
X029925Y027922D02*
X029925Y028346D01*
X030099Y028346D01*
X030099Y027922D01*
X030099Y028037D02*
X029925Y028037D01*
X029925Y028152D02*
X030099Y028152D01*
X030099Y028267D02*
X029925Y028267D01*
X029305Y028434D02*
X029131Y028434D01*
X029131Y028858D01*
X029305Y028858D01*
X029305Y028434D01*
X029305Y028549D02*
X029131Y028549D01*
X029131Y028664D02*
X029305Y028664D01*
X029305Y028779D02*
X029131Y028779D01*
X028985Y028858D02*
X028811Y028858D01*
X028985Y028858D02*
X028985Y028434D01*
X028811Y028434D01*
X028811Y028858D01*
X028811Y028549D02*
X028985Y028549D01*
X028985Y028664D02*
X028811Y028664D01*
X028811Y028779D02*
X028985Y028779D01*
X029604Y029382D02*
X029778Y029382D01*
X029778Y028958D01*
X029604Y028958D01*
X029604Y029382D01*
X029604Y029073D02*
X029778Y029073D01*
X029778Y029188D02*
X029604Y029188D01*
X029604Y029303D02*
X029778Y029303D01*
X029925Y028958D02*
X030099Y028958D01*
X029925Y028958D02*
X029925Y029382D01*
X030099Y029382D01*
X030099Y028958D01*
X030099Y029073D02*
X029925Y029073D01*
X029925Y029188D02*
X030099Y029188D01*
X030099Y029303D02*
X029925Y029303D01*
X029305Y029457D02*
X029131Y029457D01*
X029131Y029881D01*
X029305Y029881D01*
X029305Y029457D01*
X029305Y029572D02*
X029131Y029572D01*
X029131Y029687D02*
X029305Y029687D01*
X029305Y029802D02*
X029131Y029802D01*
X028985Y029881D02*
X028811Y029881D01*
X028985Y029881D02*
X028985Y029457D01*
X028811Y029457D01*
X028811Y029881D01*
X028811Y029572D02*
X028985Y029572D01*
X028985Y029687D02*
X028811Y029687D01*
X028811Y029802D02*
X028985Y029802D01*
D33*
X039337Y029766D03*
X011886Y029766D03*
M02*
