%
M48
M72
T01C0.0118
T02C0.0181
T03C0.0315
T04C0.0394
T05C0.0400
T06C0.0512
T07C0.0669
T08C0.0748
T09C0.0984
T10C0.1437
%
T01
X8646Y5074
X9541Y4450
X10309Y5266
X11365Y5682
X10245Y6258
X8902Y6578
X8902Y7345
X13700Y7473
X14756Y7057
X13828Y5682
X16547Y6802
X19554Y7153
X22289Y8449
X20066Y9569
X18946Y10496
X20050Y11792
X21009Y11792
X21905Y12687
X22519Y12710
X23104Y11984
X24000Y12288
X24400Y11856
X24880Y11056
X25216Y10704
X24288Y10720
X24016Y9984
X26799Y8529
X28430Y8657
X29166Y10528
X31981Y11312
X33274Y12225
X33274Y12815
X33274Y13406
X33274Y13996
X33274Y14587
X33274Y15178
X33274Y15768
X33274Y16359
X33229Y17342
X32381Y17486
X31709Y18125
X30174Y18125
X29406Y18157
X28702Y18061
X28862Y18749
X27919Y18381
X27103Y17678
X26047Y17134
X27247Y16078
X28398Y14895
X26399Y14207
X24640Y14639
X24096Y14543
X22944Y15486
X23680Y15950
X23744Y16462
X24704Y16238
X25520Y15710
X22225Y17997
X20002Y17134
X21153Y16286
X21441Y15102
X20673Y14943
X21249Y14527
X17762Y14655
X15091Y14543
X12500Y12767
X15091Y16510
X14915Y17310
X15171Y18701
X13796Y19437
X15299Y19885
X17139Y17038
X20577Y19437
X22609Y19661
X24384Y20668
X24752Y21164
X25663Y22044
X25855Y22604
X26847Y24459
X25855Y24875
X24672Y24683
X24320Y24363
X23392Y22908
X21025Y23323
X24339Y26573
X25337Y28505
X26271Y28646
X27346Y26586
X31479Y28646
X31991Y29170
X32528Y29669
X33257Y28646
X34345Y29682
X35433Y29170
X35948Y26202
X37995Y24779
X38491Y24523
X40090Y24171
X40794Y24267
X40794Y23467
X40090Y23211
X39194Y21708
X38971Y20461
X39834Y20493
X39850Y19725
X39866Y19245
X39060Y19684
X38843Y19309
X38331Y18189
X38843Y17486
X37379Y17650
X36028Y18349
X35516Y18381
X34940Y18781
X34988Y19741
X33820Y18781
X33884Y18349
X32957Y19165
X32957Y19741
X32723Y20259
X31286Y20239
X30910Y19437
X30350Y19741
X27663Y19837
X24720Y19325
X28734Y22988
X36236Y21020
X37259Y20508
X37563Y20780
X36459Y19997
X37259Y19485
X36428Y19165
X36188Y18781
X34900Y16718
X36522Y16359
X36522Y15768
X36522Y15178
X36522Y14587
X36522Y13996
X36522Y13406
X36522Y12815
X36522Y12225
X34908Y11600
X37883Y11008
X38939Y12176
X41722Y11664
X42169Y11600
X41722Y10736
X42585Y10448
X43257Y9233
X43705Y9521
X42777Y8081
X43449Y7441
X44025Y7313
X43001Y6322
X44984Y6130
X45720Y6386
X41242Y5234
X38491Y6834
X36092Y9377
X33005Y9361
X31261Y8460
X30794Y5574
X29630Y5458
X27118Y6930
X27103Y5618
X25264Y5426
X24992Y4530
X21537Y3603
X18578Y3603
X13108Y3619
X11045Y3619
X8934Y2835
X25344Y6898
X28191Y3379
X29502Y2931
X30046Y3379
X33092Y2899
X33501Y5586
X42713Y2579
X46552Y11088
X46584Y12687
X46648Y14927
X47991Y16158
X46840Y17710
X48055Y18253
X47751Y18941
X46680Y20588
X46616Y21324
X46631Y22424
X45736Y23180
X46963Y25029
X48263Y24571
X50105Y25023
X44888Y25643
X44313Y26186
X43001Y25035
X43161Y24523
X43193Y21708
X42617Y21324
X42841Y20620
X43769Y20493
X44473Y21324
X42841Y17710
X42745Y17134
X43161Y16686
X42361Y16366
X42873Y15854
X43050Y14944
X40430Y15485
X38075Y15918
X28430Y12799
X14292Y25741
X7506Y26125
X6955Y28921
X7349Y32188
X7349Y32385
X7349Y32582
X7349Y32778
X7349Y32975
X7349Y33172
X7349Y33369
X7349Y33566
X7546Y32188
X7743Y32188
X7940Y32188
X8136Y32188
X8333Y32188
X8569Y32188
X8806Y32188
X9003Y32188
X9199Y32188
X9396Y32188
X9593Y32188
X9790Y32188
X9829Y32385
X9829Y32582
X9829Y32778
X9829Y32975
X9829Y33172
X9829Y33369
X9829Y33566
X2744Y23211
X3240Y20061
X5895Y16750
X5575Y16302
X45784Y29417
T02
X36617Y30819
X36117Y30819
X35617Y30819
X35117Y30819
X34617Y30819
X34117Y30819
X33617Y30819
X33117Y30819
X32617Y30819
X32117Y30819
X31617Y30819
X31117Y30819
X30617Y30819
X30117Y30819
X29617Y30819
X29117Y30819
X28617Y30819
X28117Y30819
X27617Y30819
X27117Y30819
X26617Y30819
X26117Y30819
X25617Y30819
X25117Y30819
X24617Y30819
X24117Y30819
X23617Y30819
X23117Y30819
X22617Y30819
X22117Y30819
X21617Y30819
X21117Y30819
X20617Y30819
X20117Y30819
X19617Y30819
X19117Y30819
X18617Y30819
X18117Y30819
X17617Y30819
X17117Y30819
X16617Y30819
X16117Y30819
X15617Y30819
X15117Y30819
X14617Y30819
X14617Y31319
X15117Y31319
X15617Y31319
X16117Y31319
X16617Y31319
X17117Y31319
X17617Y31319
X18117Y31319
X18617Y31319
X19117Y31319
X19617Y31319
X20117Y31319
X20617Y31319
X21117Y31319
X21617Y31319
X22117Y31319
X22617Y31319
X23117Y31319
X23617Y31319
X24117Y31319
X24617Y31319
X25117Y31319
X25617Y31319
X26117Y31319
X26617Y31319
X27117Y31319
X27617Y31319
X28117Y31319
X28617Y31319
X29117Y31319
X29617Y31319
X30117Y31319
X30617Y31319
X31117Y31319
X31617Y31319
X32117Y31319
X32617Y31319
X33117Y31319
X33617Y31319
X34117Y31319
X34617Y31319
X35117Y31319
X35617Y31319
X36117Y31319
X36617Y31319
T03
X1285Y1079
X1285Y2079
X1285Y3079
X1285Y4079
X1285Y5589
X1285Y6589
X1285Y7589
X1285Y8589
X4285Y8589
X4285Y7589
X4285Y6589
X4285Y5589
X4285Y4079
X4285Y3079
X4285Y2079
X4285Y1079
T04
X8097Y1755
X9081Y1755
X10066Y1755
X15381Y1755
X16365Y1755
X17349Y1755
X22664Y1755
X23648Y1755
X24632Y1755
X24632Y7463
X22664Y7463
X17349Y7463
X15381Y7463
X10066Y7463
X8097Y7463
X7786Y22621
X6786Y22621
X5786Y22621
X4786Y22621
X3786Y22621
X8786Y22621
X9786Y22621
X10786Y22621
X11786Y22621
X12786Y22621
X13786Y22621
X14786Y22621
X15786Y22621
X16786Y22621
X17786Y22621
X18786Y22621
T05
X5755Y28921
X4755Y28921
X4755Y29921
X5755Y29921
X5755Y30921
X4755Y30921
X4755Y31921
X5755Y31921
X5755Y32921
X4755Y32921
T06
X13968Y31069
X37270Y31069
T07
X48181Y25768
X49740Y25768
T08
X26247Y4708
X21050Y4708
X18963Y4708
X13766Y4708
X11680Y4708
X6483Y4708
T09
X1621Y10416
X1621Y22621
X31148Y22621
X31148Y10416
T10
X39337Y29766
X11886Y29766
M30
