G75*
G70*
%OFA0B0*%
%FSLAX24Y24*%
%IPPOS*%
%LPD*%
%AMOC8*
5,1,8,0,0,1.08239X$1,22.5*
%
%ADD10C,0.0000*%
D10*
X000617Y000180D02*
X000617Y033645D01*
X050617Y033645D01*
X050617Y000180D01*
X000617Y000180D01*
X001129Y010416D02*
X001131Y010460D01*
X001137Y010504D01*
X001147Y010547D01*
X001160Y010589D01*
X001178Y010629D01*
X001199Y010668D01*
X001223Y010705D01*
X001250Y010740D01*
X001281Y010772D01*
X001314Y010801D01*
X001350Y010827D01*
X001388Y010849D01*
X001428Y010868D01*
X001469Y010884D01*
X001512Y010896D01*
X001555Y010904D01*
X001599Y010908D01*
X001643Y010908D01*
X001687Y010904D01*
X001730Y010896D01*
X001773Y010884D01*
X001814Y010868D01*
X001854Y010849D01*
X001892Y010827D01*
X001928Y010801D01*
X001961Y010772D01*
X001992Y010740D01*
X002019Y010705D01*
X002043Y010668D01*
X002064Y010629D01*
X002082Y010589D01*
X002095Y010547D01*
X002105Y010504D01*
X002111Y010460D01*
X002113Y010416D01*
X002111Y010372D01*
X002105Y010328D01*
X002095Y010285D01*
X002082Y010243D01*
X002064Y010203D01*
X002043Y010164D01*
X002019Y010127D01*
X001992Y010092D01*
X001961Y010060D01*
X001928Y010031D01*
X001892Y010005D01*
X001854Y009983D01*
X001814Y009964D01*
X001773Y009948D01*
X001730Y009936D01*
X001687Y009928D01*
X001643Y009924D01*
X001599Y009924D01*
X001555Y009928D01*
X001512Y009936D01*
X001469Y009948D01*
X001428Y009964D01*
X001388Y009983D01*
X001350Y010005D01*
X001314Y010031D01*
X001281Y010060D01*
X001250Y010092D01*
X001223Y010127D01*
X001199Y010164D01*
X001178Y010203D01*
X001160Y010243D01*
X001147Y010285D01*
X001137Y010328D01*
X001131Y010372D01*
X001129Y010416D01*
X001129Y022621D02*
X001131Y022665D01*
X001137Y022709D01*
X001147Y022752D01*
X001160Y022794D01*
X001178Y022834D01*
X001199Y022873D01*
X001223Y022910D01*
X001250Y022945D01*
X001281Y022977D01*
X001314Y023006D01*
X001350Y023032D01*
X001388Y023054D01*
X001428Y023073D01*
X001469Y023089D01*
X001512Y023101D01*
X001555Y023109D01*
X001599Y023113D01*
X001643Y023113D01*
X001687Y023109D01*
X001730Y023101D01*
X001773Y023089D01*
X001814Y023073D01*
X001854Y023054D01*
X001892Y023032D01*
X001928Y023006D01*
X001961Y022977D01*
X001992Y022945D01*
X002019Y022910D01*
X002043Y022873D01*
X002064Y022834D01*
X002082Y022794D01*
X002095Y022752D01*
X002105Y022709D01*
X002111Y022665D01*
X002113Y022621D01*
X002111Y022577D01*
X002105Y022533D01*
X002095Y022490D01*
X002082Y022448D01*
X002064Y022408D01*
X002043Y022369D01*
X002019Y022332D01*
X001992Y022297D01*
X001961Y022265D01*
X001928Y022236D01*
X001892Y022210D01*
X001854Y022188D01*
X001814Y022169D01*
X001773Y022153D01*
X001730Y022141D01*
X001687Y022133D01*
X001643Y022129D01*
X001599Y022129D01*
X001555Y022133D01*
X001512Y022141D01*
X001469Y022153D01*
X001428Y022169D01*
X001388Y022188D01*
X001350Y022210D01*
X001314Y022236D01*
X001281Y022265D01*
X001250Y022297D01*
X001223Y022332D01*
X001199Y022369D01*
X001178Y022408D01*
X001160Y022448D01*
X001147Y022490D01*
X001137Y022533D01*
X001131Y022577D01*
X001129Y022621D01*
X013712Y031069D02*
X013714Y031100D01*
X013720Y031131D01*
X013729Y031161D01*
X013742Y031190D01*
X013759Y031217D01*
X013779Y031241D01*
X013801Y031263D01*
X013827Y031282D01*
X013854Y031298D01*
X013883Y031310D01*
X013913Y031319D01*
X013944Y031324D01*
X013976Y031325D01*
X014007Y031322D01*
X014038Y031315D01*
X014068Y031305D01*
X014096Y031291D01*
X014122Y031273D01*
X014146Y031253D01*
X014167Y031229D01*
X014186Y031204D01*
X014201Y031176D01*
X014212Y031147D01*
X014220Y031116D01*
X014224Y031085D01*
X014224Y031053D01*
X014220Y031022D01*
X014212Y030991D01*
X014201Y030962D01*
X014186Y030934D01*
X014167Y030909D01*
X014146Y030885D01*
X014122Y030865D01*
X014096Y030847D01*
X014068Y030833D01*
X014038Y030823D01*
X014007Y030816D01*
X013976Y030813D01*
X013944Y030814D01*
X013913Y030819D01*
X013883Y030828D01*
X013854Y030840D01*
X013827Y030856D01*
X013801Y030875D01*
X013779Y030897D01*
X013759Y030921D01*
X013742Y030948D01*
X013729Y030977D01*
X013720Y031007D01*
X013714Y031038D01*
X013712Y031069D01*
X009731Y032188D02*
X009733Y032203D01*
X009738Y032216D01*
X009747Y032228D01*
X009758Y032238D01*
X009772Y032244D01*
X009786Y032247D01*
X009801Y032246D01*
X009815Y032241D01*
X009828Y032233D01*
X009838Y032223D01*
X009845Y032210D01*
X009849Y032195D01*
X009849Y032181D01*
X009845Y032166D01*
X009838Y032153D01*
X009828Y032143D01*
X009815Y032135D01*
X009801Y032130D01*
X009786Y032129D01*
X009772Y032132D01*
X009758Y032138D01*
X009747Y032148D01*
X009738Y032160D01*
X009733Y032173D01*
X009731Y032188D01*
X009534Y032188D02*
X009536Y032203D01*
X009541Y032216D01*
X009550Y032228D01*
X009561Y032238D01*
X009575Y032244D01*
X009589Y032247D01*
X009604Y032246D01*
X009618Y032241D01*
X009631Y032233D01*
X009641Y032223D01*
X009648Y032210D01*
X009652Y032195D01*
X009652Y032181D01*
X009648Y032166D01*
X009641Y032153D01*
X009631Y032143D01*
X009618Y032135D01*
X009604Y032130D01*
X009589Y032129D01*
X009575Y032132D01*
X009561Y032138D01*
X009550Y032148D01*
X009541Y032160D01*
X009536Y032173D01*
X009534Y032188D01*
X009337Y032188D02*
X009339Y032203D01*
X009344Y032216D01*
X009353Y032228D01*
X009364Y032238D01*
X009378Y032244D01*
X009392Y032247D01*
X009407Y032246D01*
X009421Y032241D01*
X009434Y032233D01*
X009444Y032223D01*
X009451Y032210D01*
X009455Y032195D01*
X009455Y032181D01*
X009451Y032166D01*
X009444Y032153D01*
X009434Y032143D01*
X009421Y032135D01*
X009407Y032130D01*
X009392Y032129D01*
X009378Y032132D01*
X009364Y032138D01*
X009353Y032148D01*
X009344Y032160D01*
X009339Y032173D01*
X009337Y032188D01*
X009140Y032188D02*
X009142Y032203D01*
X009147Y032216D01*
X009156Y032228D01*
X009167Y032238D01*
X009181Y032244D01*
X009195Y032247D01*
X009210Y032246D01*
X009224Y032241D01*
X009237Y032233D01*
X009247Y032223D01*
X009254Y032210D01*
X009258Y032195D01*
X009258Y032181D01*
X009254Y032166D01*
X009247Y032153D01*
X009237Y032143D01*
X009224Y032135D01*
X009210Y032130D01*
X009195Y032129D01*
X009181Y032132D01*
X009167Y032138D01*
X009156Y032148D01*
X009147Y032160D01*
X009142Y032173D01*
X009140Y032188D01*
X008944Y032188D02*
X008946Y032203D01*
X008951Y032216D01*
X008960Y032228D01*
X008971Y032238D01*
X008985Y032244D01*
X008999Y032247D01*
X009014Y032246D01*
X009028Y032241D01*
X009041Y032233D01*
X009051Y032223D01*
X009058Y032210D01*
X009062Y032195D01*
X009062Y032181D01*
X009058Y032166D01*
X009051Y032153D01*
X009041Y032143D01*
X009028Y032135D01*
X009014Y032130D01*
X008999Y032129D01*
X008985Y032132D01*
X008971Y032138D01*
X008960Y032148D01*
X008951Y032160D01*
X008946Y032173D01*
X008944Y032188D01*
X008747Y032188D02*
X008749Y032203D01*
X008754Y032216D01*
X008763Y032228D01*
X008774Y032238D01*
X008788Y032244D01*
X008802Y032247D01*
X008817Y032246D01*
X008831Y032241D01*
X008844Y032233D01*
X008854Y032223D01*
X008861Y032210D01*
X008865Y032195D01*
X008865Y032181D01*
X008861Y032166D01*
X008854Y032153D01*
X008844Y032143D01*
X008831Y032135D01*
X008817Y032130D01*
X008802Y032129D01*
X008788Y032132D01*
X008774Y032138D01*
X008763Y032148D01*
X008754Y032160D01*
X008749Y032173D01*
X008747Y032188D01*
X008510Y032188D02*
X008512Y032203D01*
X008517Y032216D01*
X008526Y032228D01*
X008537Y032238D01*
X008551Y032244D01*
X008565Y032247D01*
X008580Y032246D01*
X008594Y032241D01*
X008607Y032233D01*
X008617Y032223D01*
X008624Y032210D01*
X008628Y032195D01*
X008628Y032181D01*
X008624Y032166D01*
X008617Y032153D01*
X008607Y032143D01*
X008594Y032135D01*
X008580Y032130D01*
X008565Y032129D01*
X008551Y032132D01*
X008537Y032138D01*
X008526Y032148D01*
X008517Y032160D01*
X008512Y032173D01*
X008510Y032188D01*
X008274Y032188D02*
X008276Y032203D01*
X008281Y032216D01*
X008290Y032228D01*
X008301Y032238D01*
X008315Y032244D01*
X008329Y032247D01*
X008344Y032246D01*
X008358Y032241D01*
X008371Y032233D01*
X008381Y032223D01*
X008388Y032210D01*
X008392Y032195D01*
X008392Y032181D01*
X008388Y032166D01*
X008381Y032153D01*
X008371Y032143D01*
X008358Y032135D01*
X008344Y032130D01*
X008329Y032129D01*
X008315Y032132D01*
X008301Y032138D01*
X008290Y032148D01*
X008281Y032160D01*
X008276Y032173D01*
X008274Y032188D01*
X008077Y032188D02*
X008079Y032203D01*
X008084Y032216D01*
X008093Y032228D01*
X008104Y032238D01*
X008118Y032244D01*
X008132Y032247D01*
X008147Y032246D01*
X008161Y032241D01*
X008174Y032233D01*
X008184Y032223D01*
X008191Y032210D01*
X008195Y032195D01*
X008195Y032181D01*
X008191Y032166D01*
X008184Y032153D01*
X008174Y032143D01*
X008161Y032135D01*
X008147Y032130D01*
X008132Y032129D01*
X008118Y032132D01*
X008104Y032138D01*
X008093Y032148D01*
X008084Y032160D01*
X008079Y032173D01*
X008077Y032188D01*
X007881Y032188D02*
X007883Y032203D01*
X007888Y032216D01*
X007897Y032228D01*
X007908Y032238D01*
X007922Y032244D01*
X007936Y032247D01*
X007951Y032246D01*
X007965Y032241D01*
X007978Y032233D01*
X007988Y032223D01*
X007995Y032210D01*
X007999Y032195D01*
X007999Y032181D01*
X007995Y032166D01*
X007988Y032153D01*
X007978Y032143D01*
X007965Y032135D01*
X007951Y032130D01*
X007936Y032129D01*
X007922Y032132D01*
X007908Y032138D01*
X007897Y032148D01*
X007888Y032160D01*
X007883Y032173D01*
X007881Y032188D01*
X007684Y032188D02*
X007686Y032203D01*
X007691Y032216D01*
X007700Y032228D01*
X007711Y032238D01*
X007725Y032244D01*
X007739Y032247D01*
X007754Y032246D01*
X007768Y032241D01*
X007781Y032233D01*
X007791Y032223D01*
X007798Y032210D01*
X007802Y032195D01*
X007802Y032181D01*
X007798Y032166D01*
X007791Y032153D01*
X007781Y032143D01*
X007768Y032135D01*
X007754Y032130D01*
X007739Y032129D01*
X007725Y032132D01*
X007711Y032138D01*
X007700Y032148D01*
X007691Y032160D01*
X007686Y032173D01*
X007684Y032188D01*
X007487Y032188D02*
X007489Y032203D01*
X007494Y032216D01*
X007503Y032228D01*
X007514Y032238D01*
X007528Y032244D01*
X007542Y032247D01*
X007557Y032246D01*
X007571Y032241D01*
X007584Y032233D01*
X007594Y032223D01*
X007601Y032210D01*
X007605Y032195D01*
X007605Y032181D01*
X007601Y032166D01*
X007594Y032153D01*
X007584Y032143D01*
X007571Y032135D01*
X007557Y032130D01*
X007542Y032129D01*
X007528Y032132D01*
X007514Y032138D01*
X007503Y032148D01*
X007494Y032160D01*
X007489Y032173D01*
X007487Y032188D01*
X007290Y032188D02*
X007292Y032203D01*
X007297Y032216D01*
X007306Y032228D01*
X007317Y032238D01*
X007331Y032244D01*
X007345Y032247D01*
X007360Y032246D01*
X007374Y032241D01*
X007387Y032233D01*
X007397Y032223D01*
X007404Y032210D01*
X007408Y032195D01*
X007408Y032181D01*
X007404Y032166D01*
X007397Y032153D01*
X007387Y032143D01*
X007374Y032135D01*
X007360Y032130D01*
X007345Y032129D01*
X007331Y032132D01*
X007317Y032138D01*
X007306Y032148D01*
X007297Y032160D01*
X007292Y032173D01*
X007290Y032188D01*
X007290Y032385D02*
X007292Y032400D01*
X007297Y032413D01*
X007306Y032425D01*
X007317Y032435D01*
X007331Y032441D01*
X007345Y032444D01*
X007360Y032443D01*
X007374Y032438D01*
X007387Y032430D01*
X007397Y032420D01*
X007404Y032407D01*
X007408Y032392D01*
X007408Y032378D01*
X007404Y032363D01*
X007397Y032350D01*
X007387Y032340D01*
X007374Y032332D01*
X007360Y032327D01*
X007345Y032326D01*
X007331Y032329D01*
X007317Y032335D01*
X007306Y032345D01*
X007297Y032357D01*
X007292Y032370D01*
X007290Y032385D01*
X007290Y032582D02*
X007292Y032597D01*
X007297Y032610D01*
X007306Y032622D01*
X007317Y032632D01*
X007331Y032638D01*
X007345Y032641D01*
X007360Y032640D01*
X007374Y032635D01*
X007387Y032627D01*
X007397Y032617D01*
X007404Y032604D01*
X007408Y032589D01*
X007408Y032575D01*
X007404Y032560D01*
X007397Y032547D01*
X007387Y032537D01*
X007374Y032529D01*
X007360Y032524D01*
X007345Y032523D01*
X007331Y032526D01*
X007317Y032532D01*
X007306Y032542D01*
X007297Y032554D01*
X007292Y032567D01*
X007290Y032582D01*
X007290Y032778D02*
X007292Y032793D01*
X007297Y032806D01*
X007306Y032818D01*
X007317Y032828D01*
X007331Y032834D01*
X007345Y032837D01*
X007360Y032836D01*
X007374Y032831D01*
X007387Y032823D01*
X007397Y032813D01*
X007404Y032800D01*
X007408Y032785D01*
X007408Y032771D01*
X007404Y032756D01*
X007397Y032743D01*
X007387Y032733D01*
X007374Y032725D01*
X007360Y032720D01*
X007345Y032719D01*
X007331Y032722D01*
X007317Y032728D01*
X007306Y032738D01*
X007297Y032750D01*
X007292Y032763D01*
X007290Y032778D01*
X007290Y032975D02*
X007292Y032990D01*
X007297Y033003D01*
X007306Y033015D01*
X007317Y033025D01*
X007331Y033031D01*
X007345Y033034D01*
X007360Y033033D01*
X007374Y033028D01*
X007387Y033020D01*
X007397Y033010D01*
X007404Y032997D01*
X007408Y032982D01*
X007408Y032968D01*
X007404Y032953D01*
X007397Y032940D01*
X007387Y032930D01*
X007374Y032922D01*
X007360Y032917D01*
X007345Y032916D01*
X007331Y032919D01*
X007317Y032925D01*
X007306Y032935D01*
X007297Y032947D01*
X007292Y032960D01*
X007290Y032975D01*
X007290Y033172D02*
X007292Y033187D01*
X007297Y033200D01*
X007306Y033212D01*
X007317Y033222D01*
X007331Y033228D01*
X007345Y033231D01*
X007360Y033230D01*
X007374Y033225D01*
X007387Y033217D01*
X007397Y033207D01*
X007404Y033194D01*
X007408Y033179D01*
X007408Y033165D01*
X007404Y033150D01*
X007397Y033137D01*
X007387Y033127D01*
X007374Y033119D01*
X007360Y033114D01*
X007345Y033113D01*
X007331Y033116D01*
X007317Y033122D01*
X007306Y033132D01*
X007297Y033144D01*
X007292Y033157D01*
X007290Y033172D01*
X007290Y033369D02*
X007292Y033384D01*
X007297Y033397D01*
X007306Y033409D01*
X007317Y033419D01*
X007331Y033425D01*
X007345Y033428D01*
X007360Y033427D01*
X007374Y033422D01*
X007387Y033414D01*
X007397Y033404D01*
X007404Y033391D01*
X007408Y033376D01*
X007408Y033362D01*
X007404Y033347D01*
X007397Y033334D01*
X007387Y033324D01*
X007374Y033316D01*
X007360Y033311D01*
X007345Y033310D01*
X007331Y033313D01*
X007317Y033319D01*
X007306Y033329D01*
X007297Y033341D01*
X007292Y033354D01*
X007290Y033369D01*
X007290Y033566D02*
X007292Y033581D01*
X007297Y033594D01*
X007306Y033606D01*
X007317Y033616D01*
X007331Y033622D01*
X007345Y033625D01*
X007360Y033624D01*
X007374Y033619D01*
X007387Y033611D01*
X007397Y033601D01*
X007404Y033588D01*
X007408Y033573D01*
X007408Y033559D01*
X007404Y033544D01*
X007397Y033531D01*
X007387Y033521D01*
X007374Y033513D01*
X007360Y033508D01*
X007345Y033507D01*
X007331Y033510D01*
X007317Y033516D01*
X007306Y033526D01*
X007297Y033538D01*
X007292Y033551D01*
X007290Y033566D01*
X009770Y033566D02*
X009772Y033581D01*
X009777Y033594D01*
X009786Y033606D01*
X009797Y033616D01*
X009811Y033622D01*
X009825Y033625D01*
X009840Y033624D01*
X009854Y033619D01*
X009867Y033611D01*
X009877Y033601D01*
X009884Y033588D01*
X009888Y033573D01*
X009888Y033559D01*
X009884Y033544D01*
X009877Y033531D01*
X009867Y033521D01*
X009854Y033513D01*
X009840Y033508D01*
X009825Y033507D01*
X009811Y033510D01*
X009797Y033516D01*
X009786Y033526D01*
X009777Y033538D01*
X009772Y033551D01*
X009770Y033566D01*
X009770Y033369D02*
X009772Y033384D01*
X009777Y033397D01*
X009786Y033409D01*
X009797Y033419D01*
X009811Y033425D01*
X009825Y033428D01*
X009840Y033427D01*
X009854Y033422D01*
X009867Y033414D01*
X009877Y033404D01*
X009884Y033391D01*
X009888Y033376D01*
X009888Y033362D01*
X009884Y033347D01*
X009877Y033334D01*
X009867Y033324D01*
X009854Y033316D01*
X009840Y033311D01*
X009825Y033310D01*
X009811Y033313D01*
X009797Y033319D01*
X009786Y033329D01*
X009777Y033341D01*
X009772Y033354D01*
X009770Y033369D01*
X009770Y033172D02*
X009772Y033187D01*
X009777Y033200D01*
X009786Y033212D01*
X009797Y033222D01*
X009811Y033228D01*
X009825Y033231D01*
X009840Y033230D01*
X009854Y033225D01*
X009867Y033217D01*
X009877Y033207D01*
X009884Y033194D01*
X009888Y033179D01*
X009888Y033165D01*
X009884Y033150D01*
X009877Y033137D01*
X009867Y033127D01*
X009854Y033119D01*
X009840Y033114D01*
X009825Y033113D01*
X009811Y033116D01*
X009797Y033122D01*
X009786Y033132D01*
X009777Y033144D01*
X009772Y033157D01*
X009770Y033172D01*
X009770Y032975D02*
X009772Y032990D01*
X009777Y033003D01*
X009786Y033015D01*
X009797Y033025D01*
X009811Y033031D01*
X009825Y033034D01*
X009840Y033033D01*
X009854Y033028D01*
X009867Y033020D01*
X009877Y033010D01*
X009884Y032997D01*
X009888Y032982D01*
X009888Y032968D01*
X009884Y032953D01*
X009877Y032940D01*
X009867Y032930D01*
X009854Y032922D01*
X009840Y032917D01*
X009825Y032916D01*
X009811Y032919D01*
X009797Y032925D01*
X009786Y032935D01*
X009777Y032947D01*
X009772Y032960D01*
X009770Y032975D01*
X009770Y032778D02*
X009772Y032793D01*
X009777Y032806D01*
X009786Y032818D01*
X009797Y032828D01*
X009811Y032834D01*
X009825Y032837D01*
X009840Y032836D01*
X009854Y032831D01*
X009867Y032823D01*
X009877Y032813D01*
X009884Y032800D01*
X009888Y032785D01*
X009888Y032771D01*
X009884Y032756D01*
X009877Y032743D01*
X009867Y032733D01*
X009854Y032725D01*
X009840Y032720D01*
X009825Y032719D01*
X009811Y032722D01*
X009797Y032728D01*
X009786Y032738D01*
X009777Y032750D01*
X009772Y032763D01*
X009770Y032778D01*
X009770Y032582D02*
X009772Y032597D01*
X009777Y032610D01*
X009786Y032622D01*
X009797Y032632D01*
X009811Y032638D01*
X009825Y032641D01*
X009840Y032640D01*
X009854Y032635D01*
X009867Y032627D01*
X009877Y032617D01*
X009884Y032604D01*
X009888Y032589D01*
X009888Y032575D01*
X009884Y032560D01*
X009877Y032547D01*
X009867Y032537D01*
X009854Y032529D01*
X009840Y032524D01*
X009825Y032523D01*
X009811Y032526D01*
X009797Y032532D01*
X009786Y032542D01*
X009777Y032554D01*
X009772Y032567D01*
X009770Y032582D01*
X009770Y032385D02*
X009772Y032400D01*
X009777Y032413D01*
X009786Y032425D01*
X009797Y032435D01*
X009811Y032441D01*
X009825Y032444D01*
X009840Y032443D01*
X009854Y032438D01*
X009867Y032430D01*
X009877Y032420D01*
X009884Y032407D01*
X009888Y032392D01*
X009888Y032378D01*
X009884Y032363D01*
X009877Y032350D01*
X009867Y032340D01*
X009854Y032332D01*
X009840Y032327D01*
X009825Y032326D01*
X009811Y032329D01*
X009797Y032335D01*
X009786Y032345D01*
X009777Y032357D01*
X009772Y032370D01*
X009770Y032385D01*
X030656Y022621D02*
X030658Y022665D01*
X030664Y022709D01*
X030674Y022752D01*
X030687Y022794D01*
X030705Y022834D01*
X030726Y022873D01*
X030750Y022910D01*
X030777Y022945D01*
X030808Y022977D01*
X030841Y023006D01*
X030877Y023032D01*
X030915Y023054D01*
X030955Y023073D01*
X030996Y023089D01*
X031039Y023101D01*
X031082Y023109D01*
X031126Y023113D01*
X031170Y023113D01*
X031214Y023109D01*
X031257Y023101D01*
X031300Y023089D01*
X031341Y023073D01*
X031381Y023054D01*
X031419Y023032D01*
X031455Y023006D01*
X031488Y022977D01*
X031519Y022945D01*
X031546Y022910D01*
X031570Y022873D01*
X031591Y022834D01*
X031609Y022794D01*
X031622Y022752D01*
X031632Y022709D01*
X031638Y022665D01*
X031640Y022621D01*
X031638Y022577D01*
X031632Y022533D01*
X031622Y022490D01*
X031609Y022448D01*
X031591Y022408D01*
X031570Y022369D01*
X031546Y022332D01*
X031519Y022297D01*
X031488Y022265D01*
X031455Y022236D01*
X031419Y022210D01*
X031381Y022188D01*
X031341Y022169D01*
X031300Y022153D01*
X031257Y022141D01*
X031214Y022133D01*
X031170Y022129D01*
X031126Y022129D01*
X031082Y022133D01*
X031039Y022141D01*
X030996Y022153D01*
X030955Y022169D01*
X030915Y022188D01*
X030877Y022210D01*
X030841Y022236D01*
X030808Y022265D01*
X030777Y022297D01*
X030750Y022332D01*
X030726Y022369D01*
X030705Y022408D01*
X030687Y022448D01*
X030674Y022490D01*
X030664Y022533D01*
X030658Y022577D01*
X030656Y022621D01*
X037014Y031069D02*
X037016Y031100D01*
X037022Y031131D01*
X037031Y031161D01*
X037044Y031190D01*
X037061Y031217D01*
X037081Y031241D01*
X037103Y031263D01*
X037129Y031282D01*
X037156Y031298D01*
X037185Y031310D01*
X037215Y031319D01*
X037246Y031324D01*
X037278Y031325D01*
X037309Y031322D01*
X037340Y031315D01*
X037370Y031305D01*
X037398Y031291D01*
X037424Y031273D01*
X037448Y031253D01*
X037469Y031229D01*
X037488Y031204D01*
X037503Y031176D01*
X037514Y031147D01*
X037522Y031116D01*
X037526Y031085D01*
X037526Y031053D01*
X037522Y031022D01*
X037514Y030991D01*
X037503Y030962D01*
X037488Y030934D01*
X037469Y030909D01*
X037448Y030885D01*
X037424Y030865D01*
X037398Y030847D01*
X037370Y030833D01*
X037340Y030823D01*
X037309Y030816D01*
X037278Y030813D01*
X037246Y030814D01*
X037215Y030819D01*
X037185Y030828D01*
X037156Y030840D01*
X037129Y030856D01*
X037103Y030875D01*
X037081Y030897D01*
X037061Y030921D01*
X037044Y030948D01*
X037031Y030977D01*
X037022Y031007D01*
X037016Y031038D01*
X037014Y031069D01*
X030656Y010416D02*
X030658Y010460D01*
X030664Y010504D01*
X030674Y010547D01*
X030687Y010589D01*
X030705Y010629D01*
X030726Y010668D01*
X030750Y010705D01*
X030777Y010740D01*
X030808Y010772D01*
X030841Y010801D01*
X030877Y010827D01*
X030915Y010849D01*
X030955Y010868D01*
X030996Y010884D01*
X031039Y010896D01*
X031082Y010904D01*
X031126Y010908D01*
X031170Y010908D01*
X031214Y010904D01*
X031257Y010896D01*
X031300Y010884D01*
X031341Y010868D01*
X031381Y010849D01*
X031419Y010827D01*
X031455Y010801D01*
X031488Y010772D01*
X031519Y010740D01*
X031546Y010705D01*
X031570Y010668D01*
X031591Y010629D01*
X031609Y010589D01*
X031622Y010547D01*
X031632Y010504D01*
X031638Y010460D01*
X031640Y010416D01*
X031638Y010372D01*
X031632Y010328D01*
X031622Y010285D01*
X031609Y010243D01*
X031591Y010203D01*
X031570Y010164D01*
X031546Y010127D01*
X031519Y010092D01*
X031488Y010060D01*
X031455Y010031D01*
X031419Y010005D01*
X031381Y009983D01*
X031341Y009964D01*
X031300Y009948D01*
X031257Y009936D01*
X031214Y009928D01*
X031170Y009924D01*
X031126Y009924D01*
X031082Y009928D01*
X031039Y009936D01*
X030996Y009948D01*
X030955Y009964D01*
X030915Y009983D01*
X030877Y010005D01*
X030841Y010031D01*
X030808Y010060D01*
X030777Y010092D01*
X030750Y010127D01*
X030726Y010164D01*
X030705Y010203D01*
X030687Y010243D01*
X030674Y010285D01*
X030664Y010328D01*
X030658Y010372D01*
X030656Y010416D01*
M02*
