G75*
G70*
%OFA0B0*%
%FSLAX24Y24*%
%IPPOS*%
%LPD*%
%AMOC8*
5,1,8,0,0,1.08239X$1,22.5*
%
%ADD10C,0.0158*%
%ADD11C,0.0560*%
%ADD12C,0.0060*%
%ADD13C,0.0700*%
%ADD14C,0.1024*%
%ADD15C,0.0174*%
%ADD16C,0.0634*%
%ADD17R,0.1162X0.1162*%
%ADD18C,0.0174*%
%ADD19OC8,0.0780*%
%ADD20C,0.1044*%
%ADD21C,0.0421*%
%ADD22C,0.0552*%
%ADD23C,0.0555*%
%ADD24C,0.3111*%
D10*
X007349Y032188D03*
X007349Y032385D03*
X007349Y032582D03*
X007349Y032778D03*
X007349Y032975D03*
X007349Y033172D03*
X007349Y033369D03*
X007349Y033566D03*
X007546Y032188D03*
X007743Y032188D03*
X007940Y032188D03*
X008136Y032188D03*
X008333Y032188D03*
X008569Y032188D03*
X008806Y032188D03*
X009003Y032188D03*
X009199Y032188D03*
X009396Y032188D03*
X009593Y032188D03*
X009790Y032188D03*
X009829Y032385D03*
X009829Y032582D03*
X009829Y032778D03*
X009829Y032975D03*
X009829Y033172D03*
X009829Y033369D03*
X009829Y033566D03*
D11*
X009609Y031597D02*
X009607Y028620D01*
X007608Y028526D02*
X007608Y031519D01*
D12*
X041198Y021717D02*
X041625Y021717D01*
X041625Y021610D01*
X041198Y021183D01*
X041198Y021076D01*
X041518Y018961D02*
X041198Y018641D01*
X041625Y018641D01*
X041518Y018961D02*
X041518Y018320D01*
X041411Y016205D02*
X041411Y015564D01*
X041198Y015564D02*
X041625Y015564D01*
X041198Y015991D02*
X041411Y016205D01*
X041411Y013539D02*
X041411Y013112D01*
X041198Y012932D02*
X041625Y012932D01*
X041625Y013326D02*
X041198Y013326D01*
X045135Y013342D02*
X045135Y012915D01*
X045562Y013342D01*
X045562Y012915D01*
X045455Y012808D01*
X045242Y012808D01*
X045135Y012915D01*
X045135Y013342D02*
X045242Y013449D01*
X045455Y013449D01*
X045562Y013342D01*
X045562Y015564D02*
X045135Y015564D01*
X045562Y015991D01*
X045562Y016098D01*
X045455Y016205D01*
X045242Y016205D01*
X045135Y016098D01*
X045242Y018320D02*
X045135Y018427D01*
X045242Y018320D02*
X045455Y018320D01*
X045562Y018427D01*
X045562Y018641D01*
X045455Y018747D01*
X045348Y018747D01*
X045135Y018641D01*
X045135Y018961D01*
X045562Y018961D01*
X045455Y021076D02*
X045242Y021076D01*
X045135Y021183D01*
X045135Y021290D01*
X045242Y021396D01*
X045455Y021396D01*
X045562Y021290D01*
X045562Y021183D01*
X045455Y021076D01*
X045455Y021396D02*
X045562Y021503D01*
X045562Y021610D01*
X045455Y021717D01*
X045242Y021717D01*
X045135Y021610D01*
X045135Y021503D01*
X045242Y021396D01*
X049072Y021503D02*
X049179Y021396D01*
X049499Y021396D01*
X049499Y021183D02*
X049499Y021610D01*
X049392Y021717D01*
X049179Y021717D01*
X049072Y021610D01*
X049072Y021503D01*
X049072Y021183D02*
X049179Y021076D01*
X049392Y021076D01*
X049499Y021183D01*
X049499Y018961D02*
X049285Y018854D01*
X049072Y018641D01*
X049392Y018641D01*
X049499Y018534D01*
X049499Y018427D01*
X049392Y018320D01*
X049179Y018320D01*
X049072Y018427D01*
X049072Y018641D01*
X049179Y016205D02*
X049072Y016098D01*
X049179Y016205D02*
X049392Y016205D01*
X049499Y016098D01*
X049499Y015991D01*
X049392Y015885D01*
X049499Y015778D01*
X049499Y015671D01*
X049392Y015564D01*
X049179Y015564D01*
X049072Y015671D01*
X049285Y015885D02*
X049392Y015885D01*
X049179Y012915D02*
X049072Y012915D01*
X049072Y012808D01*
X049179Y012808D01*
X049179Y012915D01*
X036310Y006256D02*
X036310Y005829D01*
X036203Y005722D01*
X035883Y005722D01*
X035883Y006362D01*
X036203Y006362D01*
X036310Y006256D01*
X032373Y006256D02*
X032266Y006362D01*
X032053Y006362D01*
X031946Y006256D01*
X031946Y005829D01*
X032053Y005722D01*
X032266Y005722D01*
X032373Y005829D01*
X032159Y003606D02*
X032373Y003393D01*
X032373Y002966D01*
X032373Y003286D02*
X031946Y003286D01*
X031946Y003393D02*
X032159Y003606D01*
X031946Y003393D02*
X031946Y002966D01*
X035883Y002966D02*
X036203Y002966D01*
X036310Y003073D01*
X036310Y003179D01*
X036203Y003286D01*
X035883Y003286D01*
X035883Y002966D02*
X035883Y003606D01*
X036203Y003606D01*
X036310Y003500D01*
X036310Y003393D01*
X036203Y003286D01*
D13*
X018786Y022621D03*
X017786Y022621D03*
X016786Y022621D03*
X015786Y022621D03*
X014786Y022621D03*
X013786Y022621D03*
X012786Y022621D03*
X011786Y022621D03*
X010786Y022621D03*
X009786Y022621D03*
X008786Y022621D03*
X007786Y022621D03*
X006786Y022621D03*
X005786Y022621D03*
X004786Y022621D03*
X003786Y022621D03*
D14*
X001621Y022621D03*
X001621Y010416D03*
X031148Y010416D03*
X031148Y022621D03*
D15*
X037810Y022227D02*
X038376Y022227D01*
X037810Y022227D02*
X037810Y022653D01*
X038376Y022653D01*
X038376Y022227D01*
X038376Y022400D02*
X037810Y022400D01*
X037810Y022573D02*
X038376Y022573D01*
X040810Y022227D02*
X041376Y022227D01*
X040810Y022227D02*
X040810Y022653D01*
X041376Y022653D01*
X041376Y022227D01*
X041376Y022400D02*
X040810Y022400D01*
X040810Y022573D02*
X041376Y022573D01*
X041747Y022227D02*
X042313Y022227D01*
X041747Y022227D02*
X041747Y022653D01*
X042313Y022653D01*
X042313Y022227D01*
X042313Y022400D02*
X041747Y022400D01*
X041747Y022573D02*
X042313Y022573D01*
X044747Y022227D02*
X045313Y022227D01*
X044747Y022227D02*
X044747Y022653D01*
X045313Y022653D01*
X045313Y022227D01*
X045313Y022400D02*
X044747Y022400D01*
X044747Y022573D02*
X045313Y022573D01*
X045684Y022227D02*
X046250Y022227D01*
X045684Y022227D02*
X045684Y022653D01*
X046250Y022653D01*
X046250Y022227D01*
X046250Y022400D02*
X045684Y022400D01*
X045684Y022573D02*
X046250Y022573D01*
X048684Y022227D02*
X049250Y022227D01*
X048684Y022227D02*
X048684Y022653D01*
X049250Y022653D01*
X049250Y022227D01*
X049250Y022400D02*
X048684Y022400D01*
X048684Y022573D02*
X049250Y022573D01*
X049250Y020227D02*
X048684Y020227D01*
X048684Y020653D01*
X049250Y020653D01*
X049250Y020227D01*
X049250Y020400D02*
X048684Y020400D01*
X048684Y020573D02*
X049250Y020573D01*
X049250Y019471D02*
X048684Y019471D01*
X048684Y019897D01*
X049250Y019897D01*
X049250Y019471D01*
X049250Y019644D02*
X048684Y019644D01*
X048684Y019817D02*
X049250Y019817D01*
X049250Y017471D02*
X048684Y017471D01*
X048684Y017897D01*
X049250Y017897D01*
X049250Y017471D01*
X049250Y017644D02*
X048684Y017644D01*
X048684Y017817D02*
X049250Y017817D01*
X049250Y016715D02*
X048684Y016715D01*
X048684Y017141D01*
X049250Y017141D01*
X049250Y016715D01*
X049250Y016888D02*
X048684Y016888D01*
X048684Y017061D02*
X049250Y017061D01*
X049250Y014715D02*
X048684Y014715D01*
X048684Y015141D01*
X049250Y015141D01*
X049250Y014715D01*
X049250Y014888D02*
X048684Y014888D01*
X048684Y015061D02*
X049250Y015061D01*
X049250Y013959D02*
X048684Y013959D01*
X048684Y014385D01*
X049250Y014385D01*
X049250Y013959D01*
X049250Y014132D02*
X048684Y014132D01*
X048684Y014305D02*
X049250Y014305D01*
X049250Y011959D02*
X048684Y011959D01*
X048684Y012385D01*
X049250Y012385D01*
X049250Y011959D01*
X049250Y012132D02*
X048684Y012132D01*
X048684Y012305D02*
X049250Y012305D01*
X046250Y011959D02*
X045684Y011959D01*
X045684Y012385D01*
X046250Y012385D01*
X046250Y011959D01*
X046250Y012132D02*
X045684Y012132D01*
X045684Y012305D02*
X046250Y012305D01*
X045313Y011959D02*
X044747Y011959D01*
X044747Y012385D01*
X045313Y012385D01*
X045313Y011959D01*
X045313Y012132D02*
X044747Y012132D01*
X044747Y012305D02*
X045313Y012305D01*
X045313Y013959D02*
X044747Y013959D01*
X044747Y014385D01*
X045313Y014385D01*
X045313Y013959D01*
X045313Y014132D02*
X044747Y014132D01*
X044747Y014305D02*
X045313Y014305D01*
X045684Y013959D02*
X046250Y013959D01*
X045684Y013959D02*
X045684Y014385D01*
X046250Y014385D01*
X046250Y013959D01*
X046250Y014132D02*
X045684Y014132D01*
X045684Y014305D02*
X046250Y014305D01*
X046250Y014715D02*
X045684Y014715D01*
X045684Y015141D01*
X046250Y015141D01*
X046250Y014715D01*
X046250Y014888D02*
X045684Y014888D01*
X045684Y015061D02*
X046250Y015061D01*
X045313Y014715D02*
X044747Y014715D01*
X044747Y015141D01*
X045313Y015141D01*
X045313Y014715D01*
X045313Y014888D02*
X044747Y014888D01*
X044747Y015061D02*
X045313Y015061D01*
X045313Y016715D02*
X044747Y016715D01*
X044747Y017141D01*
X045313Y017141D01*
X045313Y016715D01*
X045313Y016888D02*
X044747Y016888D01*
X044747Y017061D02*
X045313Y017061D01*
X045684Y016715D02*
X046250Y016715D01*
X045684Y016715D02*
X045684Y017141D01*
X046250Y017141D01*
X046250Y016715D01*
X046250Y016888D02*
X045684Y016888D01*
X045684Y017061D02*
X046250Y017061D01*
X046250Y017471D02*
X045684Y017471D01*
X045684Y017897D01*
X046250Y017897D01*
X046250Y017471D01*
X046250Y017644D02*
X045684Y017644D01*
X045684Y017817D02*
X046250Y017817D01*
X045313Y017471D02*
X044747Y017471D01*
X044747Y017897D01*
X045313Y017897D01*
X045313Y017471D01*
X045313Y017644D02*
X044747Y017644D01*
X044747Y017817D02*
X045313Y017817D01*
X045313Y019471D02*
X044747Y019471D01*
X044747Y019897D01*
X045313Y019897D01*
X045313Y019471D01*
X045313Y019644D02*
X044747Y019644D01*
X044747Y019817D02*
X045313Y019817D01*
X045684Y019471D02*
X046250Y019471D01*
X045684Y019471D02*
X045684Y019897D01*
X046250Y019897D01*
X046250Y019471D01*
X046250Y019644D02*
X045684Y019644D01*
X045684Y019817D02*
X046250Y019817D01*
X046250Y020227D02*
X045684Y020227D01*
X045684Y020653D01*
X046250Y020653D01*
X046250Y020227D01*
X046250Y020400D02*
X045684Y020400D01*
X045684Y020573D02*
X046250Y020573D01*
X045313Y020227D02*
X044747Y020227D01*
X044747Y020653D01*
X045313Y020653D01*
X045313Y020227D01*
X045313Y020400D02*
X044747Y020400D01*
X044747Y020573D02*
X045313Y020573D01*
X042313Y020227D02*
X041747Y020227D01*
X041747Y020653D01*
X042313Y020653D01*
X042313Y020227D01*
X042313Y020400D02*
X041747Y020400D01*
X041747Y020573D02*
X042313Y020573D01*
X041376Y020227D02*
X040810Y020227D01*
X040810Y020653D01*
X041376Y020653D01*
X041376Y020227D01*
X041376Y020400D02*
X040810Y020400D01*
X040810Y020573D02*
X041376Y020573D01*
X041376Y019471D02*
X040810Y019471D01*
X040810Y019897D01*
X041376Y019897D01*
X041376Y019471D01*
X041376Y019644D02*
X040810Y019644D01*
X040810Y019817D02*
X041376Y019817D01*
X041747Y019471D02*
X042313Y019471D01*
X041747Y019471D02*
X041747Y019897D01*
X042313Y019897D01*
X042313Y019471D01*
X042313Y019644D02*
X041747Y019644D01*
X041747Y019817D02*
X042313Y019817D01*
X042313Y017471D02*
X041747Y017471D01*
X041747Y017897D01*
X042313Y017897D01*
X042313Y017471D01*
X042313Y017644D02*
X041747Y017644D01*
X041747Y017817D02*
X042313Y017817D01*
X041376Y017471D02*
X040810Y017471D01*
X040810Y017897D01*
X041376Y017897D01*
X041376Y017471D01*
X041376Y017644D02*
X040810Y017644D01*
X040810Y017817D02*
X041376Y017817D01*
X041376Y016715D02*
X040810Y016715D01*
X040810Y017141D01*
X041376Y017141D01*
X041376Y016715D01*
X041376Y016888D02*
X040810Y016888D01*
X040810Y017061D02*
X041376Y017061D01*
X041747Y016715D02*
X042313Y016715D01*
X041747Y016715D02*
X041747Y017141D01*
X042313Y017141D01*
X042313Y016715D01*
X042313Y016888D02*
X041747Y016888D01*
X041747Y017061D02*
X042313Y017061D01*
X042313Y014715D02*
X041747Y014715D01*
X041747Y015141D01*
X042313Y015141D01*
X042313Y014715D01*
X042313Y014888D02*
X041747Y014888D01*
X041747Y015061D02*
X042313Y015061D01*
X041376Y014715D02*
X040810Y014715D01*
X040810Y015141D01*
X041376Y015141D01*
X041376Y014715D01*
X041376Y014888D02*
X040810Y014888D01*
X040810Y015061D02*
X041376Y015061D01*
X041376Y013959D02*
X040810Y013959D01*
X040810Y014385D01*
X041376Y014385D01*
X041376Y013959D01*
X041376Y014132D02*
X040810Y014132D01*
X040810Y014305D02*
X041376Y014305D01*
X041747Y013959D02*
X042313Y013959D01*
X041747Y013959D02*
X041747Y014385D01*
X042313Y014385D01*
X042313Y013959D01*
X042313Y014132D02*
X041747Y014132D01*
X041747Y014305D02*
X042313Y014305D01*
X042313Y011959D02*
X041747Y011959D01*
X041747Y012385D01*
X042313Y012385D01*
X042313Y011959D01*
X042313Y012132D02*
X041747Y012132D01*
X041747Y012305D02*
X042313Y012305D01*
X041376Y011959D02*
X040810Y011959D01*
X040810Y012385D01*
X041376Y012385D01*
X041376Y011959D01*
X041376Y012132D02*
X040810Y012132D01*
X040810Y012305D02*
X041376Y012305D01*
X038376Y011959D02*
X037810Y011959D01*
X037810Y012385D01*
X038376Y012385D01*
X038376Y011959D01*
X038376Y012132D02*
X037810Y012132D01*
X037810Y012305D02*
X038376Y012305D01*
X038376Y013959D02*
X037810Y013959D01*
X037810Y014385D01*
X038376Y014385D01*
X038376Y013959D01*
X038376Y014132D02*
X037810Y014132D01*
X037810Y014305D02*
X038376Y014305D01*
X038376Y014715D02*
X037810Y014715D01*
X037810Y015141D01*
X038376Y015141D01*
X038376Y014715D01*
X038376Y014888D02*
X037810Y014888D01*
X037810Y015061D02*
X038376Y015061D01*
X038376Y016715D02*
X037810Y016715D01*
X037810Y017141D01*
X038376Y017141D01*
X038376Y016715D01*
X038376Y016888D02*
X037810Y016888D01*
X037810Y017061D02*
X038376Y017061D01*
X038376Y017471D02*
X037810Y017471D01*
X037810Y017897D01*
X038376Y017897D01*
X038376Y017471D01*
X038376Y017644D02*
X037810Y017644D01*
X037810Y017817D02*
X038376Y017817D01*
X038376Y019471D02*
X037810Y019471D01*
X037810Y019897D01*
X038376Y019897D01*
X038376Y019471D01*
X038376Y019644D02*
X037810Y019644D01*
X037810Y019817D02*
X038376Y019817D01*
X038376Y020227D02*
X037810Y020227D01*
X037810Y020653D01*
X038376Y020653D01*
X038376Y020227D01*
X038376Y020400D02*
X037810Y020400D01*
X037810Y020573D02*
X038376Y020573D01*
X041747Y009628D02*
X042313Y009628D01*
X041747Y009628D02*
X041747Y010054D01*
X042313Y010054D01*
X042313Y009628D01*
X042313Y009801D02*
X041747Y009801D01*
X041747Y009974D02*
X042313Y009974D01*
X042313Y007628D02*
X041747Y007628D01*
X041747Y008054D01*
X042313Y008054D01*
X042313Y007628D01*
X042313Y007801D02*
X041747Y007801D01*
X041747Y007974D02*
X042313Y007974D01*
X040971Y007869D02*
X040971Y007303D01*
X040971Y007869D02*
X041397Y007869D01*
X041397Y007303D01*
X040971Y007303D01*
X040971Y007476D02*
X041397Y007476D01*
X041397Y007649D02*
X040971Y007649D01*
X040971Y007822D02*
X041397Y007822D01*
X041747Y006873D02*
X042313Y006873D01*
X041747Y006873D02*
X041747Y007299D01*
X042313Y007299D01*
X042313Y006873D01*
X042313Y007046D02*
X041747Y007046D01*
X041747Y007219D02*
X042313Y007219D01*
X044747Y006873D02*
X045313Y006873D01*
X044747Y006873D02*
X044747Y007299D01*
X045313Y007299D01*
X045313Y006873D01*
X045313Y007046D02*
X044747Y007046D01*
X044747Y007219D02*
X045313Y007219D01*
X045664Y007303D02*
X045664Y007869D01*
X046090Y007869D01*
X046090Y007303D01*
X045664Y007303D01*
X045664Y007476D02*
X046090Y007476D01*
X046090Y007649D02*
X045664Y007649D01*
X045664Y007822D02*
X046090Y007822D01*
X045313Y007628D02*
X044747Y007628D01*
X044747Y008054D01*
X045313Y008054D01*
X045313Y007628D01*
X045313Y007801D02*
X044747Y007801D01*
X044747Y007974D02*
X045313Y007974D01*
X045313Y009628D02*
X044747Y009628D01*
X044747Y010054D01*
X045313Y010054D01*
X045313Y009628D01*
X045313Y009801D02*
X044747Y009801D01*
X044747Y009974D02*
X045313Y009974D01*
X047664Y007869D02*
X047664Y007303D01*
X047664Y007869D02*
X048090Y007869D01*
X048090Y007303D01*
X047664Y007303D01*
X047664Y007476D02*
X048090Y007476D01*
X048090Y007649D02*
X047664Y007649D01*
X047664Y007822D02*
X048090Y007822D01*
X045313Y004873D02*
X044747Y004873D01*
X044747Y005299D01*
X045313Y005299D01*
X045313Y004873D01*
X045313Y005046D02*
X044747Y005046D01*
X044747Y005219D02*
X045313Y005219D01*
X045664Y004869D02*
X045664Y004303D01*
X045664Y004869D02*
X046090Y004869D01*
X046090Y004303D01*
X045664Y004303D01*
X045664Y004476D02*
X046090Y004476D01*
X046090Y004649D02*
X045664Y004649D01*
X045664Y004822D02*
X046090Y004822D01*
X045313Y004117D02*
X044747Y004117D01*
X044747Y004543D01*
X045313Y004543D01*
X045313Y004117D01*
X045313Y004290D02*
X044747Y004290D01*
X044747Y004463D02*
X045313Y004463D01*
X047664Y004303D02*
X047664Y004869D01*
X048090Y004869D01*
X048090Y004303D01*
X047664Y004303D01*
X047664Y004476D02*
X048090Y004476D01*
X048090Y004649D02*
X047664Y004649D01*
X047664Y004822D02*
X048090Y004822D01*
X045313Y002117D02*
X044747Y002117D01*
X044747Y002543D01*
X045313Y002543D01*
X045313Y002117D01*
X045313Y002290D02*
X044747Y002290D01*
X044747Y002463D02*
X045313Y002463D01*
X042313Y002117D02*
X041747Y002117D01*
X041747Y002543D01*
X042313Y002543D01*
X042313Y002117D01*
X042313Y002290D02*
X041747Y002290D01*
X041747Y002463D02*
X042313Y002463D01*
X042313Y004117D02*
X041747Y004117D01*
X041747Y004543D01*
X042313Y004543D01*
X042313Y004117D01*
X042313Y004290D02*
X041747Y004290D01*
X041747Y004463D02*
X042313Y004463D01*
X042313Y004873D02*
X041747Y004873D01*
X041747Y005299D01*
X042313Y005299D01*
X042313Y004873D01*
X042313Y005046D02*
X041747Y005046D01*
X041747Y005219D02*
X042313Y005219D01*
X040971Y004869D02*
X040971Y004303D01*
X040971Y004869D02*
X041397Y004869D01*
X041397Y004303D01*
X040971Y004303D01*
X040971Y004476D02*
X041397Y004476D01*
X041397Y004649D02*
X040971Y004649D01*
X040971Y004822D02*
X041397Y004822D01*
X038971Y004869D02*
X038971Y004303D01*
X038971Y004869D02*
X039397Y004869D01*
X039397Y004303D01*
X038971Y004303D01*
X038971Y004476D02*
X039397Y004476D01*
X039397Y004649D02*
X038971Y004649D01*
X038971Y004822D02*
X039397Y004822D01*
X038971Y007303D02*
X038971Y007869D01*
X039397Y007869D01*
X039397Y007303D01*
X038971Y007303D01*
X038971Y007476D02*
X039397Y007476D01*
X039397Y007649D02*
X038971Y007649D01*
X038971Y007822D02*
X039397Y007822D01*
X036061Y006873D02*
X035495Y006873D01*
X035495Y007299D01*
X036061Y007299D01*
X036061Y006873D01*
X036061Y007046D02*
X035495Y007046D01*
X035495Y007219D02*
X036061Y007219D01*
X033061Y006873D02*
X032495Y006873D01*
X032495Y007299D01*
X033061Y007299D01*
X033061Y006873D01*
X033061Y007046D02*
X032495Y007046D01*
X032495Y007219D02*
X033061Y007219D01*
X032124Y006873D02*
X031558Y006873D01*
X031558Y007299D01*
X032124Y007299D01*
X032124Y006873D01*
X032124Y007046D02*
X031558Y007046D01*
X031558Y007219D02*
X032124Y007219D01*
X029124Y006873D02*
X028558Y006873D01*
X028558Y007299D01*
X029124Y007299D01*
X029124Y006873D01*
X029124Y007046D02*
X028558Y007046D01*
X028558Y007219D02*
X029124Y007219D01*
X029124Y004873D02*
X028558Y004873D01*
X028558Y005299D01*
X029124Y005299D01*
X029124Y004873D01*
X029124Y005046D02*
X028558Y005046D01*
X028558Y005219D02*
X029124Y005219D01*
X029124Y004117D02*
X028558Y004117D01*
X028558Y004543D01*
X029124Y004543D01*
X029124Y004117D01*
X029124Y004290D02*
X028558Y004290D01*
X028558Y004463D02*
X029124Y004463D01*
X031558Y004117D02*
X032124Y004117D01*
X031558Y004117D02*
X031558Y004543D01*
X032124Y004543D01*
X032124Y004117D01*
X032124Y004290D02*
X031558Y004290D01*
X031558Y004463D02*
X032124Y004463D01*
X032124Y004873D02*
X031558Y004873D01*
X031558Y005299D01*
X032124Y005299D01*
X032124Y004873D01*
X032124Y005046D02*
X031558Y005046D01*
X031558Y005219D02*
X032124Y005219D01*
X032495Y004873D02*
X033061Y004873D01*
X032495Y004873D02*
X032495Y005299D01*
X033061Y005299D01*
X033061Y004873D01*
X033061Y005046D02*
X032495Y005046D01*
X032495Y005219D02*
X033061Y005219D01*
X033061Y004117D02*
X032495Y004117D01*
X032495Y004543D01*
X033061Y004543D01*
X033061Y004117D01*
X033061Y004290D02*
X032495Y004290D01*
X032495Y004463D02*
X033061Y004463D01*
X035495Y004117D02*
X036061Y004117D01*
X035495Y004117D02*
X035495Y004543D01*
X036061Y004543D01*
X036061Y004117D01*
X036061Y004290D02*
X035495Y004290D01*
X035495Y004463D02*
X036061Y004463D01*
X036061Y004873D02*
X035495Y004873D01*
X035495Y005299D01*
X036061Y005299D01*
X036061Y004873D01*
X036061Y005046D02*
X035495Y005046D01*
X035495Y005219D02*
X036061Y005219D01*
X036061Y002117D02*
X035495Y002117D01*
X035495Y002543D01*
X036061Y002543D01*
X036061Y002117D01*
X036061Y002290D02*
X035495Y002290D01*
X035495Y002463D02*
X036061Y002463D01*
X033061Y002117D02*
X032495Y002117D01*
X032495Y002543D01*
X033061Y002543D01*
X033061Y002117D01*
X033061Y002290D02*
X032495Y002290D01*
X032495Y002463D02*
X033061Y002463D01*
X032124Y002117D02*
X031558Y002117D01*
X031558Y002543D01*
X032124Y002543D01*
X032124Y002117D01*
X032124Y002290D02*
X031558Y002290D01*
X031558Y002463D02*
X032124Y002463D01*
X029124Y002117D02*
X028558Y002117D01*
X028558Y002543D01*
X029124Y002543D01*
X029124Y002117D01*
X029124Y002290D02*
X028558Y002290D01*
X028558Y002463D02*
X029124Y002463D01*
X009822Y028318D02*
X009822Y028884D01*
X009822Y028318D02*
X009396Y028318D01*
X009396Y028884D01*
X009822Y028884D01*
X009822Y028491D02*
X009396Y028491D01*
X009396Y028664D02*
X009822Y028664D01*
X009822Y028837D02*
X009396Y028837D01*
X007822Y028884D02*
X007822Y028318D01*
X007396Y028318D01*
X007396Y028884D01*
X007822Y028884D01*
X007822Y028491D02*
X007396Y028491D01*
X007396Y028664D02*
X007822Y028664D01*
X007822Y028837D02*
X007396Y028837D01*
X007822Y031318D02*
X007822Y031884D01*
X007822Y031318D02*
X007396Y031318D01*
X007396Y031884D01*
X007822Y031884D01*
X007822Y031491D02*
X007396Y031491D01*
X007396Y031664D02*
X007822Y031664D01*
X007822Y031837D02*
X007396Y031837D01*
X009822Y031884D02*
X009822Y031318D01*
X009396Y031318D01*
X009396Y031884D01*
X009822Y031884D01*
X009822Y031491D02*
X009396Y031491D01*
X009396Y031664D02*
X009822Y031664D01*
X009822Y031837D02*
X009396Y031837D01*
D16*
X010066Y007463D03*
X008097Y007463D03*
X015381Y007463D03*
X017349Y007463D03*
X022664Y007463D03*
X024632Y007463D03*
X024632Y001755D03*
X023648Y001755D03*
X022664Y001755D03*
X017349Y001755D03*
X016365Y001755D03*
X015381Y001755D03*
X010066Y001755D03*
X009081Y001755D03*
X008097Y001755D03*
D17*
X006483Y004708D03*
X011680Y004708D03*
X013766Y004708D03*
X018963Y004708D03*
X021050Y004708D03*
X026247Y004708D03*
D18*
X033528Y012056D02*
X033528Y012394D01*
X033866Y012394D01*
X033866Y012056D01*
X033528Y012056D01*
X033528Y012229D02*
X033866Y012229D01*
X034355Y012394D02*
X034355Y012056D01*
X034355Y012394D02*
X034693Y012394D01*
X034693Y012056D01*
X034355Y012056D01*
X034355Y012229D02*
X034693Y012229D01*
X035441Y012394D02*
X035441Y012056D01*
X035103Y012056D01*
X035103Y012394D01*
X035441Y012394D01*
X035441Y012229D02*
X035103Y012229D01*
X035441Y012646D02*
X035441Y012984D01*
X035441Y012646D02*
X035103Y012646D01*
X035103Y012984D01*
X035441Y012984D01*
X035441Y012819D02*
X035103Y012819D01*
X034355Y012984D02*
X034355Y012646D01*
X034355Y012984D02*
X034693Y012984D01*
X034693Y012646D01*
X034355Y012646D01*
X034355Y012819D02*
X034693Y012819D01*
X034355Y013237D02*
X034355Y013575D01*
X034693Y013575D01*
X034693Y013237D01*
X034355Y013237D01*
X034355Y013410D02*
X034693Y013410D01*
X035441Y013575D02*
X035441Y013237D01*
X035103Y013237D01*
X035103Y013575D01*
X035441Y013575D01*
X035441Y013410D02*
X035103Y013410D01*
X035441Y013827D02*
X035441Y014165D01*
X035441Y013827D02*
X035103Y013827D01*
X035103Y014165D01*
X035441Y014165D01*
X035441Y014000D02*
X035103Y014000D01*
X034355Y014165D02*
X034355Y013827D01*
X034355Y014165D02*
X034693Y014165D01*
X034693Y013827D01*
X034355Y013827D01*
X034355Y014000D02*
X034693Y014000D01*
X034355Y014418D02*
X034355Y014756D01*
X034693Y014756D01*
X034693Y014418D01*
X034355Y014418D01*
X034355Y014591D02*
X034693Y014591D01*
X035441Y014756D02*
X035441Y014418D01*
X035103Y014418D01*
X035103Y014756D01*
X035441Y014756D01*
X035441Y014591D02*
X035103Y014591D01*
X035441Y015009D02*
X035441Y015347D01*
X035441Y015009D02*
X035103Y015009D01*
X035103Y015347D01*
X035441Y015347D01*
X035441Y015182D02*
X035103Y015182D01*
X034355Y015347D02*
X034355Y015009D01*
X034355Y015347D02*
X034693Y015347D01*
X034693Y015009D01*
X034355Y015009D01*
X034355Y015182D02*
X034693Y015182D01*
X034355Y015599D02*
X034355Y015937D01*
X034693Y015937D01*
X034693Y015599D01*
X034355Y015599D01*
X034355Y015772D02*
X034693Y015772D01*
X035441Y015937D02*
X035441Y015599D01*
X035103Y015599D01*
X035103Y015937D01*
X035441Y015937D01*
X035441Y015772D02*
X035103Y015772D01*
X035441Y016190D02*
X035441Y016528D01*
X035441Y016190D02*
X035103Y016190D01*
X035103Y016528D01*
X035441Y016528D01*
X035441Y016363D02*
X035103Y016363D01*
X034355Y016528D02*
X034355Y016190D01*
X034355Y016528D02*
X034693Y016528D01*
X034693Y016190D01*
X034355Y016190D01*
X034355Y016363D02*
X034693Y016363D01*
X033528Y016528D02*
X033528Y016190D01*
X033528Y016528D02*
X033866Y016528D01*
X033866Y016190D01*
X033528Y016190D01*
X033528Y016363D02*
X033866Y016363D01*
X033528Y015937D02*
X033528Y015599D01*
X033528Y015937D02*
X033866Y015937D01*
X033866Y015599D01*
X033528Y015599D01*
X033528Y015772D02*
X033866Y015772D01*
X033528Y015347D02*
X033528Y015009D01*
X033528Y015347D02*
X033866Y015347D01*
X033866Y015009D01*
X033528Y015009D01*
X033528Y015182D02*
X033866Y015182D01*
X033528Y014756D02*
X033528Y014418D01*
X033528Y014756D02*
X033866Y014756D01*
X033866Y014418D01*
X033528Y014418D01*
X033528Y014591D02*
X033866Y014591D01*
X033528Y014165D02*
X033528Y013827D01*
X033528Y014165D02*
X033866Y014165D01*
X033866Y013827D01*
X033528Y013827D01*
X033528Y014000D02*
X033866Y014000D01*
X033528Y013575D02*
X033528Y013237D01*
X033528Y013575D02*
X033866Y013575D01*
X033866Y013237D01*
X033528Y013237D01*
X033528Y013410D02*
X033866Y013410D01*
X033528Y012984D02*
X033528Y012646D01*
X033528Y012984D02*
X033866Y012984D01*
X033866Y012646D01*
X033528Y012646D01*
X033528Y012819D02*
X033866Y012819D01*
X036268Y012984D02*
X036268Y012646D01*
X035930Y012646D01*
X035930Y012984D01*
X036268Y012984D01*
X036268Y012819D02*
X035930Y012819D01*
X036268Y013237D02*
X036268Y013575D01*
X036268Y013237D02*
X035930Y013237D01*
X035930Y013575D01*
X036268Y013575D01*
X036268Y013410D02*
X035930Y013410D01*
X036268Y013827D02*
X036268Y014165D01*
X036268Y013827D02*
X035930Y013827D01*
X035930Y014165D01*
X036268Y014165D01*
X036268Y014000D02*
X035930Y014000D01*
X036268Y014418D02*
X036268Y014756D01*
X036268Y014418D02*
X035930Y014418D01*
X035930Y014756D01*
X036268Y014756D01*
X036268Y014591D02*
X035930Y014591D01*
X036268Y015009D02*
X036268Y015347D01*
X036268Y015009D02*
X035930Y015009D01*
X035930Y015347D01*
X036268Y015347D01*
X036268Y015182D02*
X035930Y015182D01*
X036268Y015599D02*
X036268Y015937D01*
X036268Y015599D02*
X035930Y015599D01*
X035930Y015937D01*
X036268Y015937D01*
X036268Y015772D02*
X035930Y015772D01*
X036268Y016190D02*
X036268Y016528D01*
X036268Y016190D02*
X035930Y016190D01*
X035930Y016528D01*
X036268Y016528D01*
X036268Y016363D02*
X035930Y016363D01*
X036268Y012394D02*
X036268Y012056D01*
X035930Y012056D01*
X035930Y012394D01*
X036268Y012394D01*
X036268Y012229D02*
X035930Y012229D01*
X049928Y023562D02*
X050266Y023562D01*
X049928Y023562D02*
X049928Y023900D01*
X050266Y023900D01*
X050266Y023562D01*
X050266Y023735D02*
X049928Y023735D01*
X049928Y024389D02*
X050266Y024389D01*
X049928Y024389D02*
X049928Y024727D01*
X050266Y024727D01*
X050266Y024389D01*
X050266Y024562D02*
X049928Y024562D01*
D19*
X005755Y028921D03*
X004755Y028921D03*
X004755Y029921D03*
X005755Y029921D03*
X005755Y030921D03*
X004755Y030921D03*
X004755Y031921D03*
X005755Y031921D03*
X005755Y032921D03*
X004755Y032921D03*
D20*
X048181Y026772D02*
X048181Y025768D01*
X049740Y025768D02*
X049740Y026772D01*
D21*
X036617Y030819D03*
X036117Y030819D03*
X035617Y030819D03*
X035117Y030819D03*
X034617Y030819D03*
X034117Y030819D03*
X033617Y030819D03*
X033117Y030819D03*
X032617Y030819D03*
X032117Y030819D03*
X031617Y030819D03*
X031117Y030819D03*
X030617Y030819D03*
X030117Y030819D03*
X029617Y030819D03*
X029117Y030819D03*
X028617Y030819D03*
X028117Y030819D03*
X027617Y030819D03*
X027117Y030819D03*
X026617Y030819D03*
X026117Y030819D03*
X025617Y030819D03*
X025117Y030819D03*
X024617Y030819D03*
X024117Y030819D03*
X023617Y030819D03*
X023117Y030819D03*
X022617Y030819D03*
X022117Y030819D03*
X021617Y030819D03*
X021117Y030819D03*
X020617Y030819D03*
X020117Y030819D03*
X019617Y030819D03*
X019117Y030819D03*
X018617Y030819D03*
X018117Y030819D03*
X017617Y030819D03*
X017117Y030819D03*
X016617Y030819D03*
X016117Y030819D03*
X015617Y030819D03*
X015117Y030819D03*
X014617Y030819D03*
X014617Y031319D03*
X015117Y031319D03*
X015617Y031319D03*
X016117Y031319D03*
X016617Y031319D03*
X017117Y031319D03*
X017617Y031319D03*
X018117Y031319D03*
X018617Y031319D03*
X019117Y031319D03*
X019617Y031319D03*
X020117Y031319D03*
X020617Y031319D03*
X021117Y031319D03*
X021617Y031319D03*
X022117Y031319D03*
X022617Y031319D03*
X023117Y031319D03*
X023617Y031319D03*
X024117Y031319D03*
X024617Y031319D03*
X025117Y031319D03*
X025617Y031319D03*
X026117Y031319D03*
X026617Y031319D03*
X027117Y031319D03*
X027617Y031319D03*
X028117Y031319D03*
X028617Y031319D03*
X029117Y031319D03*
X029617Y031319D03*
X030117Y031319D03*
X030617Y031319D03*
X031117Y031319D03*
X031617Y031319D03*
X032117Y031319D03*
X032617Y031319D03*
X033117Y031319D03*
X033617Y031319D03*
X034117Y031319D03*
X034617Y031319D03*
X035117Y031319D03*
X035617Y031319D03*
X036117Y031319D03*
X036617Y031319D03*
D22*
X037270Y031069D03*
X013968Y031069D03*
D23*
X001543Y001079D02*
X001028Y001079D01*
X001028Y002079D02*
X001543Y002079D01*
X001543Y003079D02*
X001028Y003079D01*
X001028Y004079D02*
X001543Y004079D01*
X004028Y004079D02*
X004543Y004079D01*
X004543Y003079D02*
X004028Y003079D01*
X004028Y002079D02*
X004543Y002079D01*
X004543Y001079D02*
X004028Y001079D01*
X004028Y005589D02*
X004543Y005589D01*
X004543Y006589D02*
X004028Y006589D01*
X004028Y007589D02*
X004543Y007589D01*
X004543Y008589D02*
X004028Y008589D01*
X001543Y008589D02*
X001028Y008589D01*
X001028Y007589D02*
X001543Y007589D01*
X001543Y006589D02*
X001028Y006589D01*
X001028Y005589D02*
X001543Y005589D01*
D24*
X011886Y029766D03*
X039337Y029766D03*
M02*
